<?xml version="1.0" encoding="UTF-8"?>
<svg xmlns="http://www.w3.org/2000/svg" xmlns:xlink="http://www.w3.org/1999/xlink" width="12pt" height="12pt" viewBox="0 0 12 12" version="1.1">
<g id="surface1">
<path style=" stroke:none;fill-rule:nonzero;fill:rgb(100%,100%,100%);fill-opacity:1;" d="M 12 6 C 12 2.683594 9.316406 0 6 0 C 2.683594 0 0 2.683594 0 6 C 0 9.285156 2.660156 12 6 12 C 9.324219 12 12 9.300781 12 6 Z M 6 0.703125 C 8.921875 0.703125 11.296875 3.078125 11.296875 6 C 11.296875 7.070312 10.980469 8.09375 10.390625 8.964844 C 8.023438 6.417969 3.980469 6.414062 1.609375 8.964844 C 1.019531 8.09375 0.703125 7.070312 0.703125 6 C 0.703125 3.078125 3.078125 0.703125 6 0.703125 Z M 2.050781 9.527344 C 4.152344 7.167969 7.847656 7.167969 9.953125 9.527344 C 7.839844 11.890625 4.160156 11.890625 2.050781 9.527344 Z M 2.050781 9.527344 "/>
<path style=" stroke:none;fill-rule:nonzero;fill:rgb(100%,100%,100%);fill-opacity:1;" d="M 6 6.351562 C 7.164062 6.351562 8.109375 5.40625 8.109375 4.242188 L 8.109375 3.539062 C 8.109375 2.375 7.164062 1.429688 6 1.429688 C 4.835938 1.429688 3.890625 2.375 3.890625 3.539062 L 3.890625 4.242188 C 3.890625 5.40625 4.835938 6.351562 6 6.351562 Z M 4.59375 3.539062 C 4.59375 2.761719 5.226562 2.132812 6 2.132812 C 6.777344 2.132812 7.40625 2.761719 7.40625 3.539062 L 7.40625 4.242188 C 7.40625 5.019531 6.777344 5.648438 6 5.648438 C 5.226562 5.648438 4.59375 5.019531 4.59375 4.242188 Z M 4.59375 3.539062 "/>
</g>
</svg>
