<?xml version="1.0" encoding="UTF-8"?>
<svg xmlns="http://www.w3.org/2000/svg" xmlns:xlink="http://www.w3.org/1999/xlink" width="97pt" height="97pt" viewBox="0 0 97 97" version="1.1">
<defs>
<filter id="alpha" filterUnits="objectBoundingBox" x="0%" y="0%" width="100%" height="100%">
  <feColorMatrix type="matrix" in="SourceGraphic" values="0 0 0 0 1 0 0 0 0 1 0 0 0 0 1 0 0 0 1 0"/>
</filter>
<mask id="mask0">
  <g filter="url(#alpha)">
<rect x="0" y="0" width="97" height="97" style="fill:rgb(0%,0%,0%);fill-opacity:0.458824;stroke:none;"/>
  </g>
</mask>
<mask id="mask1">
  <g filter="url(#alpha)">
<rect x="0" y="0" width="97" height="97" style="fill:rgb(0%,0%,0%);fill-opacity:0.458824;stroke:none;"/>
  </g>
</mask>
<clipPath id="clip2">
  <rect x="0" y="0" width="97" height="97"/>
</clipPath>
<g id="surface6" clip-path="url(#clip2)">
<path style=" stroke:none;fill-rule:nonzero;fill:rgb(74.901961%,85.098039%,100%);fill-opacity:1;" d="M 91.070312 22.207031 L 41.457031 22.207031 C 40.925781 22.207031 40.558594 21.722656 40.695312 21.214844 L 45.320312 3.414062 C 45.410156 3.066406 45.734375 2.8125 46.082031 2.8125 L 95.671875 2.8125 C 96.203125 2.8125 96.574219 3.296875 96.433594 3.808594 L 91.808594 21.609375 C 91.742188 21.976562 91.417969 22.207031 91.070312 22.207031 Z M 91.070312 22.207031 "/>
</g>
<mask id="mask2">
  <g filter="url(#alpha)">
<rect x="0" y="0" width="97" height="97" style="fill:rgb(0%,0%,0%);fill-opacity:0.458824;stroke:none;"/>
  </g>
</mask>
<mask id="mask3">
  <g filter="url(#alpha)">
<rect x="0" y="0" width="97" height="97" style="fill:rgb(0%,0%,0%);fill-opacity:0.458824;stroke:none;"/>
  </g>
</mask>
<clipPath id="clip4">
  <rect x="0" y="0" width="97" height="97"/>
</clipPath>
<g id="surface10" clip-path="url(#clip4)">
<path style=" stroke:none;fill-rule:nonzero;fill:rgb(66.27451%,76.078431%,100%);fill-opacity:1;" d="M 65.523438 7.042969 L 48.253906 7.042969 C 48.023438 7.042969 47.863281 6.859375 47.863281 6.648438 C 47.863281 6.441406 48.046875 6.257812 48.253906 6.257812 L 65.523438 6.257812 C 65.757812 6.257812 65.917969 6.441406 65.917969 6.648438 C 65.917969 6.859375 65.757812 7.042969 65.523438 7.042969 Z M 65.523438 7.042969 "/>
</g>
<mask id="mask4">
  <g filter="url(#alpha)">
<rect x="0" y="0" width="97" height="97" style="fill:rgb(0%,0%,0%);fill-opacity:0.458824;stroke:none;"/>
  </g>
</mask>
<clipPath id="clip5">
  <rect x="0" y="0" width="97" height="97"/>
</clipPath>
<g id="surface13" clip-path="url(#clip5)">
<path style=" stroke:none;fill-rule:nonzero;fill:rgb(66.27451%,76.078431%,100%);fill-opacity:1;" d="M 64.207031 14.996094 L 46.9375 14.996094 C 46.707031 14.996094 46.542969 14.8125 46.542969 14.601562 C 46.542969 14.394531 46.730469 14.210938 46.9375 14.210938 L 64.207031 14.210938 C 64.4375 14.210938 64.601562 14.394531 64.601562 14.601562 C 64.601562 14.8125 64.414062 14.996094 64.207031 14.996094 Z M 64.207031 14.996094 "/>
</g>
<mask id="mask5">
  <g filter="url(#alpha)">
<rect x="0" y="0" width="97" height="97" style="fill:rgb(0%,0%,0%);fill-opacity:0.458824;stroke:none;"/>
  </g>
</mask>
<clipPath id="clip6">
  <rect x="0" y="0" width="97" height="97"/>
</clipPath>
<g id="surface16" clip-path="url(#clip6)">
<path style=" stroke:none;fill-rule:nonzero;fill:rgb(66.27451%,76.078431%,100%);fill-opacity:1;" d="M 71.464844 11.992188 L 54.195312 11.992188 C 53.964844 11.992188 53.804688 11.804688 53.804688 11.597656 C 53.804688 11.390625 53.988281 11.203125 54.195312 11.203125 L 71.464844 11.203125 C 71.699219 11.203125 71.859375 11.390625 71.859375 11.597656 C 71.859375 11.804688 71.675781 11.992188 71.464844 11.992188 Z M 71.464844 11.992188 "/>
</g>
<mask id="mask6">
  <g filter="url(#alpha)">
<rect x="0" y="0" width="97" height="97" style="fill:rgb(0%,0%,0%);fill-opacity:0.458824;stroke:none;"/>
  </g>
</mask>
<clipPath id="clip7">
  <rect x="0" y="0" width="97" height="97"/>
</clipPath>
<g id="surface19" clip-path="url(#clip7)">
<path style=" stroke:none;fill-rule:nonzero;fill:rgb(66.27451%,76.078431%,100%);fill-opacity:1;" d="M 52.996094 9.703125 L 47.816406 9.703125 C 47.585938 9.703125 47.421875 9.515625 47.421875 9.308594 C 47.421875 9.101562 47.609375 8.914062 47.816406 8.914062 L 52.996094 8.914062 C 53.226562 8.914062 53.386719 9.101562 53.386719 9.308594 C 53.386719 9.515625 53.226562 9.703125 52.996094 9.703125 Z M 52.996094 9.703125 "/>
</g>
<mask id="mask7">
  <g filter="url(#alpha)">
<rect x="0" y="0" width="97" height="97" style="fill:rgb(0%,0%,0%);fill-opacity:0.458824;stroke:none;"/>
  </g>
</mask>
<clipPath id="clip8">
  <rect x="0" y="0" width="97" height="97"/>
</clipPath>
<g id="surface22" clip-path="url(#clip8)">
<path style=" stroke:none;fill-rule:nonzero;fill:rgb(66.27451%,76.078431%,100%);fill-opacity:1;" d="M 52.300781 11.992188 L 47.121094 11.992188 C 46.890625 11.992188 46.730469 11.804688 46.730469 11.597656 C 46.730469 11.390625 46.914062 11.203125 47.121094 11.203125 L 52.300781 11.203125 C 52.53125 11.203125 52.695312 11.390625 52.695312 11.597656 C 52.695312 11.804688 52.507812 11.992188 52.300781 11.992188 Z M 52.300781 11.992188 "/>
</g>
<mask id="mask8">
  <g filter="url(#alpha)">
<rect x="0" y="0" width="97" height="97" style="fill:rgb(0%,0%,0%);fill-opacity:0.458824;stroke:none;"/>
  </g>
</mask>
<clipPath id="clip9">
  <rect x="0" y="0" width="97" height="97"/>
</clipPath>
<g id="surface25" clip-path="url(#clip9)">
<path style=" stroke:none;fill-rule:nonzero;fill:rgb(66.27451%,76.078431%,100%);fill-opacity:1;" d="M 74.425781 7.042969 L 68.277344 7.042969 C 68.042969 7.042969 67.882812 6.859375 67.882812 6.648438 C 67.882812 6.441406 68.066406 6.257812 68.277344 6.257812 L 74.425781 6.257812 C 74.65625 6.257812 74.816406 6.441406 74.816406 6.648438 C 74.816406 6.859375 74.632812 7.042969 74.425781 7.042969 Z M 74.425781 7.042969 "/>
</g>
<mask id="mask9">
  <g filter="url(#alpha)">
<rect x="0" y="0" width="97" height="97" style="fill:rgb(0%,0%,0%);fill-opacity:0.458824;stroke:none;"/>
  </g>
</mask>
<clipPath id="clip10">
  <rect x="0" y="0" width="97" height="97"/>
</clipPath>
<g id="surface28" clip-path="url(#clip10)">
<path style=" stroke:none;fill-rule:nonzero;fill:rgb(51.764706%,68.235294%,89.803922%);fill-opacity:1;" d="M 71.28125 18.488281 L 62.101562 18.488281 C 62.035156 18.488281 61.988281 18.464844 61.941406 18.417969 C 61.894531 18.371094 61.894531 18.300781 61.894531 18.234375 L 62.3125 16.660156 C 62.335938 16.566406 62.425781 16.5 62.519531 16.5 L 71.699219 16.5 C 71.765625 16.5 71.8125 16.523438 71.859375 16.566406 C 71.90625 16.613281 71.90625 16.683594 71.90625 16.753906 L 71.488281 18.324219 C 71.464844 18.417969 71.375 18.488281 71.28125 18.488281 Z M 62.171875 18.210938 L 71.234375 18.210938 L 71.605469 16.753906 L 62.542969 16.753906 Z M 62.171875 18.210938 "/>
</g>
<mask id="mask10">
  <g filter="url(#alpha)">
<rect x="0" y="0" width="97" height="97" style="fill:rgb(0%,0%,0%);fill-opacity:0.458824;stroke:none;"/>
  </g>
</mask>
<clipPath id="clip11">
  <rect x="0" y="0" width="97" height="97"/>
</clipPath>
<g id="surface31" clip-path="url(#clip11)">
<path style=" stroke:none;fill-rule:nonzero;fill:rgb(51.764706%,68.235294%,89.803922%);fill-opacity:1;" d="M 59.859375 18.488281 L 50.683594 18.488281 C 50.613281 18.488281 50.566406 18.464844 50.519531 18.417969 C 50.476562 18.371094 50.476562 18.300781 50.476562 18.234375 L 50.890625 16.660156 C 50.914062 16.566406 51.007812 16.5 51.097656 16.5 L 60.277344 16.5 C 60.347656 16.5 60.394531 16.523438 60.4375 16.566406 C 60.484375 16.613281 60.484375 16.683594 60.484375 16.753906 L 60.070312 18.324219 C 60.046875 18.417969 59.953125 18.488281 59.859375 18.488281 Z M 50.753906 18.210938 L 59.816406 18.210938 L 60.183594 16.753906 L 51.144531 16.753906 Z M 50.753906 18.210938 "/>
</g>
<clipPath id="clip3">
  <rect x="0" y="0" width="97" height="97"/>
</clipPath>
<g id="surface33" clip-path="url(#clip3)">
<use xlink:href="#surface10" mask="url(#mask3)"/>
<use xlink:href="#surface13" mask="url(#mask4)"/>
<use xlink:href="#surface16" mask="url(#mask5)"/>
<use xlink:href="#surface19" mask="url(#mask6)"/>
<use xlink:href="#surface22" mask="url(#mask7)"/>
<use xlink:href="#surface25" mask="url(#mask8)"/>
<use xlink:href="#surface28" mask="url(#mask9)"/>
<use xlink:href="#surface31" mask="url(#mask10)"/>
</g>
<mask id="mask11">
  <g filter="url(#alpha)">
<rect x="0" y="0" width="97" height="97" style="fill:rgb(0%,0%,0%);fill-opacity:0.458824;stroke:none;"/>
  </g>
</mask>
<clipPath id="clip12">
  <rect x="0" y="0" width="97" height="97"/>
</clipPath>
<g id="surface36" clip-path="url(#clip12)">
<path style=" stroke:none;fill-rule:nonzero;fill:rgb(55.294118%,73.72549%,97.254902%);fill-opacity:1;" d="M 87.417969 16.058594 C 86.957031 15.433594 85.035156 14.972656 84.503906 14.347656 C 84.226562 14.023438 84.226562 13.425781 84.296875 12.9375 C 84.480469 12.824219 84.644531 12.707031 84.734375 12.589844 C 84.898438 12.359375 85.082031 12.035156 85.246094 11.691406 C 85.289062 11.734375 85.359375 11.78125 85.476562 11.78125 C 85.730469 11.78125 86.679688 10.464844 86.421875 10.164062 C 86.285156 10.003906 86.054688 10.140625 85.890625 10.304688 C 86.144531 9.726562 86.332031 9.285156 86.332031 9.285156 C 86.355469 9.214844 86.378906 9.148438 86.398438 9.054688 C 86.769531 7.527344 85.84375 6.304688 84.34375 6.304688 C 82.816406 6.304688 81.292969 7.527344 80.898438 9.054688 C 80.875 9.125 80.875 9.191406 80.851562 9.285156 C 80.851562 9.285156 80.804688 9.726562 80.78125 10.304688 C 80.691406 10.140625 80.550781 10.003906 80.320312 10.164062 C 79.925781 10.464844 80.226562 11.757812 80.480469 11.78125 C 80.574219 11.78125 80.667969 11.734375 80.738281 11.691406 C 80.738281 12.035156 80.761719 12.359375 80.804688 12.589844 C 80.851562 12.730469 80.992188 12.867188 81.152344 13.03125 C 80.96875 13.515625 80.667969 14.070312 80.273438 14.371094 C 79.441406 14.996094 77.292969 15.457031 76.507812 16.082031 C 75.8125 16.636719 75.164062 18.300781 75.050781 18.625 L 87.625 18.625 C 87.648438 18.253906 87.855469 16.613281 87.417969 16.058594 Z M 87.417969 16.058594 "/>
</g>
<clipPath id="clip1">
  <rect x="0" y="0" width="97" height="97"/>
</clipPath>
<g id="surface38" clip-path="url(#clip1)">
<use xlink:href="#surface6" mask="url(#mask1)"/>
<use xlink:href="#surface33" mask="url(#mask2)"/>
<use xlink:href="#surface36" mask="url(#mask11)"/>
</g>
<mask id="mask12">
  <g filter="url(#alpha)">
<rect x="0" y="0" width="97" height="97" style="fill:rgb(0%,0%,0%);fill-opacity:0.458824;stroke:none;"/>
  </g>
</mask>
<mask id="mask13">
  <g filter="url(#alpha)">
<rect x="0" y="0" width="97" height="97" style="fill:rgb(0%,0%,0%);fill-opacity:0.458824;stroke:none;"/>
  </g>
</mask>
<clipPath id="clip14">
  <rect x="0" y="0" width="97" height="97"/>
</clipPath>
<g id="surface42" clip-path="url(#clip14)">
<path style=" stroke:none;fill-rule:nonzero;fill:rgb(74.901961%,85.098039%,100%);fill-opacity:1;" d="M 79.320312 79.910156 L 34.984375 79.910156 C 34.507812 79.910156 34.179688 79.476562 34.300781 79.023438 L 38.4375 63.109375 C 38.519531 62.796875 38.808594 62.570312 39.117188 62.570312 L 83.453125 62.570312 C 83.929688 62.570312 84.261719 63.003906 84.136719 63.460938 L 80.003906 79.375 C 79.941406 79.707031 79.652344 79.910156 79.320312 79.910156 Z M 79.320312 79.910156 "/>
</g>
<mask id="mask14">
  <g filter="url(#alpha)">
<rect x="0" y="0" width="97" height="97" style="fill:rgb(0%,0%,0%);fill-opacity:0.458824;stroke:none;"/>
  </g>
</mask>
<mask id="mask15">
  <g filter="url(#alpha)">
<rect x="0" y="0" width="97" height="97" style="fill:rgb(0%,0%,0%);fill-opacity:0.458824;stroke:none;"/>
  </g>
</mask>
<clipPath id="clip16">
  <rect x="0" y="0" width="97" height="97"/>
</clipPath>
<g id="surface46" clip-path="url(#clip16)">
<path style=" stroke:none;fill-rule:nonzero;fill:rgb(66.27451%,76.078431%,100%);fill-opacity:1;" d="M 56.5 66.351562 L 41.0625 66.351562 C 40.855469 66.351562 40.710938 66.1875 40.710938 66 C 40.710938 65.816406 40.875 65.652344 41.0625 65.652344 L 56.5 65.652344 C 56.707031 65.652344 56.851562 65.816406 56.851562 66 C 56.851562 66.1875 56.6875 66.351562 56.5 66.351562 Z M 56.5 66.351562 "/>
</g>
<mask id="mask16">
  <g filter="url(#alpha)">
<rect x="0" y="0" width="97" height="97" style="fill:rgb(0%,0%,0%);fill-opacity:0.458824;stroke:none;"/>
  </g>
</mask>
<clipPath id="clip17">
  <rect x="0" y="0" width="97" height="97"/>
</clipPath>
<g id="surface49" clip-path="url(#clip17)">
<path style=" stroke:none;fill-rule:nonzero;fill:rgb(66.27451%,76.078431%,100%);fill-opacity:1;" d="M 55.300781 73.464844 L 39.863281 73.464844 C 39.65625 73.464844 39.511719 73.296875 39.511719 73.113281 C 39.511719 72.925781 39.675781 72.761719 39.863281 72.761719 L 55.300781 72.761719 C 55.507812 72.761719 55.652344 72.925781 55.652344 73.113281 C 55.652344 73.296875 55.507812 73.464844 55.300781 73.464844 Z M 55.300781 73.464844 "/>
</g>
<mask id="mask17">
  <g filter="url(#alpha)">
<rect x="0" y="0" width="97" height="97" style="fill:rgb(0%,0%,0%);fill-opacity:0.458824;stroke:none;"/>
  </g>
</mask>
<clipPath id="clip18">
  <rect x="0" y="0" width="97" height="97"/>
</clipPath>
<g id="surface52" clip-path="url(#clip18)">
<path style=" stroke:none;fill-rule:nonzero;fill:rgb(66.27451%,76.078431%,100%);fill-opacity:1;" d="M 61.792969 70.777344 L 46.375 70.777344 C 46.167969 70.777344 46.023438 70.609375 46.023438 70.425781 C 46.023438 70.238281 46.1875 70.074219 46.375 70.074219 L 61.8125 70.074219 C 62.019531 70.074219 62.164062 70.238281 62.164062 70.425781 C 62.164062 70.609375 62 70.777344 61.792969 70.777344 Z M 61.792969 70.777344 "/>
</g>
<mask id="mask18">
  <g filter="url(#alpha)">
<rect x="0" y="0" width="97" height="97" style="fill:rgb(0%,0%,0%);fill-opacity:0.458824;stroke:none;"/>
  </g>
</mask>
<clipPath id="clip19">
  <rect x="0" y="0" width="97" height="97"/>
</clipPath>
<g id="surface55" clip-path="url(#clip19)">
<path style=" stroke:none;fill-rule:nonzero;fill:rgb(66.27451%,76.078431%,100%);fill-opacity:1;" d="M 45.296875 68.730469 L 40.667969 68.730469 C 40.460938 68.730469 40.316406 68.566406 40.316406 68.378906 C 40.316406 68.191406 40.484375 68.027344 40.667969 68.027344 L 45.296875 68.027344 C 45.503906 68.027344 45.648438 68.191406 45.648438 68.378906 C 45.648438 68.566406 45.484375 68.730469 45.296875 68.730469 Z M 45.296875 68.730469 "/>
</g>
<mask id="mask19">
  <g filter="url(#alpha)">
<rect x="0" y="0" width="97" height="97" style="fill:rgb(0%,0%,0%);fill-opacity:0.458824;stroke:none;"/>
  </g>
</mask>
<clipPath id="clip20">
  <rect x="0" y="0" width="97" height="97"/>
</clipPath>
<g id="surface58" clip-path="url(#clip20)">
<path style=" stroke:none;fill-rule:nonzero;fill:rgb(66.27451%,76.078431%,100%);fill-opacity:1;" d="M 44.65625 70.777344 L 40.027344 70.777344 C 39.820312 70.777344 39.675781 70.609375 39.675781 70.425781 C 39.675781 70.238281 39.839844 70.074219 40.027344 70.074219 L 44.65625 70.074219 C 44.863281 70.074219 45.007812 70.238281 45.007812 70.425781 C 45.007812 70.609375 44.863281 70.777344 44.65625 70.777344 Z M 44.65625 70.777344 "/>
</g>
<mask id="mask20">
  <g filter="url(#alpha)">
<rect x="0" y="0" width="97" height="97" style="fill:rgb(0%,0%,0%);fill-opacity:0.458824;stroke:none;"/>
  </g>
</mask>
<clipPath id="clip21">
  <rect x="0" y="0" width="97" height="97"/>
</clipPath>
<g id="surface61" clip-path="url(#clip21)">
<path style=" stroke:none;fill-rule:nonzero;fill:rgb(66.27451%,76.078431%,100%);fill-opacity:1;" d="M 64.4375 66.351562 L 58.941406 66.351562 C 58.734375 66.351562 58.589844 66.1875 58.589844 66 C 58.589844 65.816406 58.753906 65.652344 58.941406 65.652344 L 64.4375 65.652344 C 64.644531 65.652344 64.789062 65.816406 64.789062 66 C 64.789062 66.1875 64.644531 66.351562 64.4375 66.351562 Z M 64.4375 66.351562 "/>
</g>
<mask id="mask21">
  <g filter="url(#alpha)">
<rect x="0" y="0" width="97" height="97" style="fill:rgb(0%,0%,0%);fill-opacity:0.458824;stroke:none;"/>
  </g>
</mask>
<clipPath id="clip22">
  <rect x="0" y="0" width="97" height="97"/>
</clipPath>
<g id="surface64" clip-path="url(#clip22)">
<path style=" stroke:none;fill-rule:nonzero;fill:rgb(51.764706%,68.235294%,89.803922%);fill-opacity:1;" d="M 61.648438 76.5625 L 53.441406 76.5625 C 53.378906 76.5625 53.339844 76.542969 53.296875 76.5 C 53.257812 76.460938 53.257812 76.398438 53.257812 76.335938 L 53.628906 74.929688 C 53.648438 74.847656 53.730469 74.785156 53.8125 74.785156 L 62.019531 74.785156 C 62.082031 74.785156 62.125 74.804688 62.164062 74.847656 C 62.207031 74.890625 62.207031 74.953125 62.207031 75.011719 L 61.832031 76.417969 C 61.792969 76.523438 61.730469 76.5625 61.648438 76.5625 Z M 53.503906 76.335938 L 61.605469 76.335938 L 61.9375 75.035156 L 53.835938 75.035156 Z M 53.503906 76.335938 "/>
</g>
<mask id="mask22">
  <g filter="url(#alpha)">
<rect x="0" y="0" width="97" height="97" style="fill:rgb(0%,0%,0%);fill-opacity:0.458824;stroke:none;"/>
  </g>
</mask>
<clipPath id="clip23">
  <rect x="0" y="0" width="97" height="97"/>
</clipPath>
<g id="surface67" clip-path="url(#clip23)">
<path style=" stroke:none;fill-rule:nonzero;fill:rgb(51.764706%,68.235294%,89.803922%);fill-opacity:1;" d="M 51.4375 76.5625 L 43.230469 76.5625 C 43.167969 76.5625 43.128906 76.542969 43.085938 76.5 C 43.046875 76.460938 43.046875 76.398438 43.046875 76.335938 L 43.417969 74.929688 C 43.4375 74.847656 43.519531 74.785156 43.605469 74.785156 L 51.808594 74.785156 C 51.871094 74.785156 51.914062 74.804688 51.953125 74.847656 C 51.996094 74.890625 51.996094 74.953125 51.996094 75.011719 L 51.625 76.417969 C 51.582031 76.523438 51.519531 76.5625 51.4375 76.5625 Z M 43.292969 76.335938 L 51.394531 76.335938 L 51.726562 75.035156 L 43.625 75.035156 Z M 43.292969 76.335938 "/>
</g>
<clipPath id="clip15">
  <rect x="0" y="0" width="97" height="97"/>
</clipPath>
<g id="surface69" clip-path="url(#clip15)">
<use xlink:href="#surface46" mask="url(#mask15)"/>
<use xlink:href="#surface49" mask="url(#mask16)"/>
<use xlink:href="#surface52" mask="url(#mask17)"/>
<use xlink:href="#surface55" mask="url(#mask18)"/>
<use xlink:href="#surface58" mask="url(#mask19)"/>
<use xlink:href="#surface61" mask="url(#mask20)"/>
<use xlink:href="#surface64" mask="url(#mask21)"/>
<use xlink:href="#surface67" mask="url(#mask22)"/>
</g>
<mask id="mask23">
  <g filter="url(#alpha)">
<rect x="0" y="0" width="97" height="97" style="fill:rgb(0%,0%,0%);fill-opacity:0.458824;stroke:none;"/>
  </g>
</mask>
<clipPath id="clip24">
  <rect x="0" y="0" width="97" height="97"/>
</clipPath>
<g id="surface72" clip-path="url(#clip24)">
<path style=" stroke:none;fill-rule:nonzero;fill:rgb(55.294118%,73.72549%,97.254902%);fill-opacity:1;" d="M 76.074219 74.414062 C 75.660156 73.855469 73.945312 73.441406 73.472656 72.882812 C 73.222656 72.59375 73.222656 72.058594 73.285156 71.625 C 73.449219 71.519531 73.59375 71.417969 73.675781 71.3125 C 73.820312 71.105469 73.988281 70.816406 74.132812 70.507812 C 74.171875 70.546875 74.234375 70.589844 74.339844 70.589844 C 74.566406 70.589844 75.414062 69.414062 75.1875 69.144531 C 75.0625 69 74.855469 69.121094 74.710938 69.265625 C 74.9375 68.75 75.105469 68.359375 75.105469 68.359375 C 75.125 68.296875 75.144531 68.234375 75.164062 68.152344 C 75.496094 66.789062 74.667969 65.691406 73.324219 65.691406 C 71.960938 65.691406 70.597656 66.789062 70.246094 68.152344 C 70.226562 68.214844 70.226562 68.277344 70.203125 68.359375 C 70.203125 68.359375 70.164062 68.75 70.144531 69.265625 C 70.058594 69.121094 69.9375 69 69.730469 69.144531 C 69.378906 69.414062 69.648438 70.570312 69.875 70.589844 C 69.957031 70.589844 70.039062 70.546875 70.101562 70.507812 C 70.101562 70.816406 70.121094 71.105469 70.164062 71.3125 C 70.203125 71.4375 70.328125 71.5625 70.472656 71.707031 C 70.308594 72.140625 70.039062 72.636719 69.6875 72.90625 C 68.945312 73.464844 67.023438 73.875 66.320312 74.433594 C 65.699219 74.929688 65.121094 76.417969 65.015625 76.707031 L 76.261719 76.707031 C 76.28125 76.378906 76.445312 74.910156 76.074219 74.414062 Z M 76.074219 74.414062 "/>
</g>
<clipPath id="clip13">
  <rect x="0" y="0" width="97" height="97"/>
</clipPath>
<g id="surface74" clip-path="url(#clip13)">
<use xlink:href="#surface42" mask="url(#mask13)"/>
<use xlink:href="#surface69" mask="url(#mask14)"/>
<use xlink:href="#surface72" mask="url(#mask23)"/>
</g>
<mask id="mask24">
  <g filter="url(#alpha)">
<rect x="0" y="0" width="97" height="97" style="fill:rgb(0%,0%,0%);fill-opacity:0.458824;stroke:none;"/>
  </g>
</mask>
<mask id="mask25">
  <g filter="url(#alpha)">
<rect x="0" y="0" width="97" height="97" style="fill:rgb(0%,0%,0%);fill-opacity:0.458824;stroke:none;"/>
  </g>
</mask>
<clipPath id="clip26">
  <rect x="0" y="0" width="97" height="97"/>
</clipPath>
<g id="surface78" clip-path="url(#clip26)">
<path style=" stroke:none;fill-rule:nonzero;fill:rgb(74.901961%,85.098039%,100%);fill-opacity:1;" d="M 79.320312 79.910156 L 34.984375 79.910156 C 34.507812 79.910156 34.179688 79.476562 34.300781 79.023438 L 38.4375 63.109375 C 38.519531 62.796875 38.808594 62.570312 39.117188 62.570312 L 83.453125 62.570312 C 83.929688 62.570312 84.261719 63.003906 84.136719 63.460938 L 80.003906 79.375 C 79.941406 79.707031 79.652344 79.910156 79.320312 79.910156 Z M 79.320312 79.910156 "/>
</g>
<mask id="mask26">
  <g filter="url(#alpha)">
<rect x="0" y="0" width="97" height="97" style="fill:rgb(0%,0%,0%);fill-opacity:0.458824;stroke:none;"/>
  </g>
</mask>
<mask id="mask27">
  <g filter="url(#alpha)">
<rect x="0" y="0" width="97" height="97" style="fill:rgb(0%,0%,0%);fill-opacity:0.458824;stroke:none;"/>
  </g>
</mask>
<clipPath id="clip28">
  <rect x="0" y="0" width="97" height="97"/>
</clipPath>
<g id="surface82" clip-path="url(#clip28)">
<path style=" stroke:none;fill-rule:nonzero;fill:rgb(66.27451%,76.078431%,100%);fill-opacity:1;" d="M 56.5 66.351562 L 41.0625 66.351562 C 40.855469 66.351562 40.710938 66.1875 40.710938 66 C 40.710938 65.816406 40.875 65.652344 41.0625 65.652344 L 56.5 65.652344 C 56.707031 65.652344 56.851562 65.816406 56.851562 66 C 56.851562 66.1875 56.6875 66.351562 56.5 66.351562 Z M 56.5 66.351562 "/>
</g>
<mask id="mask28">
  <g filter="url(#alpha)">
<rect x="0" y="0" width="97" height="97" style="fill:rgb(0%,0%,0%);fill-opacity:0.458824;stroke:none;"/>
  </g>
</mask>
<clipPath id="clip29">
  <rect x="0" y="0" width="97" height="97"/>
</clipPath>
<g id="surface85" clip-path="url(#clip29)">
<path style=" stroke:none;fill-rule:nonzero;fill:rgb(66.27451%,76.078431%,100%);fill-opacity:1;" d="M 55.300781 73.464844 L 39.863281 73.464844 C 39.65625 73.464844 39.511719 73.296875 39.511719 73.113281 C 39.511719 72.925781 39.675781 72.761719 39.863281 72.761719 L 55.300781 72.761719 C 55.507812 72.761719 55.652344 72.925781 55.652344 73.113281 C 55.652344 73.296875 55.507812 73.464844 55.300781 73.464844 Z M 55.300781 73.464844 "/>
</g>
<mask id="mask29">
  <g filter="url(#alpha)">
<rect x="0" y="0" width="97" height="97" style="fill:rgb(0%,0%,0%);fill-opacity:0.458824;stroke:none;"/>
  </g>
</mask>
<clipPath id="clip30">
  <rect x="0" y="0" width="97" height="97"/>
</clipPath>
<g id="surface88" clip-path="url(#clip30)">
<path style=" stroke:none;fill-rule:nonzero;fill:rgb(66.27451%,76.078431%,100%);fill-opacity:1;" d="M 61.792969 70.777344 L 46.375 70.777344 C 46.167969 70.777344 46.023438 70.609375 46.023438 70.425781 C 46.023438 70.238281 46.1875 70.074219 46.375 70.074219 L 61.8125 70.074219 C 62.019531 70.074219 62.164062 70.238281 62.164062 70.425781 C 62.164062 70.609375 62 70.777344 61.792969 70.777344 Z M 61.792969 70.777344 "/>
</g>
<mask id="mask30">
  <g filter="url(#alpha)">
<rect x="0" y="0" width="97" height="97" style="fill:rgb(0%,0%,0%);fill-opacity:0.458824;stroke:none;"/>
  </g>
</mask>
<clipPath id="clip31">
  <rect x="0" y="0" width="97" height="97"/>
</clipPath>
<g id="surface91" clip-path="url(#clip31)">
<path style=" stroke:none;fill-rule:nonzero;fill:rgb(66.27451%,76.078431%,100%);fill-opacity:1;" d="M 45.296875 68.730469 L 40.667969 68.730469 C 40.460938 68.730469 40.316406 68.566406 40.316406 68.378906 C 40.316406 68.191406 40.484375 68.027344 40.667969 68.027344 L 45.296875 68.027344 C 45.503906 68.027344 45.648438 68.191406 45.648438 68.378906 C 45.648438 68.566406 45.484375 68.730469 45.296875 68.730469 Z M 45.296875 68.730469 "/>
</g>
<mask id="mask31">
  <g filter="url(#alpha)">
<rect x="0" y="0" width="97" height="97" style="fill:rgb(0%,0%,0%);fill-opacity:0.458824;stroke:none;"/>
  </g>
</mask>
<clipPath id="clip32">
  <rect x="0" y="0" width="97" height="97"/>
</clipPath>
<g id="surface94" clip-path="url(#clip32)">
<path style=" stroke:none;fill-rule:nonzero;fill:rgb(66.27451%,76.078431%,100%);fill-opacity:1;" d="M 44.65625 70.777344 L 40.027344 70.777344 C 39.820312 70.777344 39.675781 70.609375 39.675781 70.425781 C 39.675781 70.238281 39.839844 70.074219 40.027344 70.074219 L 44.65625 70.074219 C 44.863281 70.074219 45.007812 70.238281 45.007812 70.425781 C 45.007812 70.609375 44.863281 70.777344 44.65625 70.777344 Z M 44.65625 70.777344 "/>
</g>
<mask id="mask32">
  <g filter="url(#alpha)">
<rect x="0" y="0" width="97" height="97" style="fill:rgb(0%,0%,0%);fill-opacity:0.458824;stroke:none;"/>
  </g>
</mask>
<clipPath id="clip33">
  <rect x="0" y="0" width="97" height="97"/>
</clipPath>
<g id="surface97" clip-path="url(#clip33)">
<path style=" stroke:none;fill-rule:nonzero;fill:rgb(66.27451%,76.078431%,100%);fill-opacity:1;" d="M 64.4375 66.351562 L 58.941406 66.351562 C 58.734375 66.351562 58.589844 66.1875 58.589844 66 C 58.589844 65.816406 58.753906 65.652344 58.941406 65.652344 L 64.4375 65.652344 C 64.644531 65.652344 64.789062 65.816406 64.789062 66 C 64.789062 66.1875 64.644531 66.351562 64.4375 66.351562 Z M 64.4375 66.351562 "/>
</g>
<mask id="mask33">
  <g filter="url(#alpha)">
<rect x="0" y="0" width="97" height="97" style="fill:rgb(0%,0%,0%);fill-opacity:0.458824;stroke:none;"/>
  </g>
</mask>
<clipPath id="clip34">
  <rect x="0" y="0" width="97" height="97"/>
</clipPath>
<g id="surface100" clip-path="url(#clip34)">
<path style=" stroke:none;fill-rule:nonzero;fill:rgb(51.764706%,68.235294%,89.803922%);fill-opacity:1;" d="M 61.648438 76.5625 L 53.441406 76.5625 C 53.378906 76.5625 53.339844 76.542969 53.296875 76.5 C 53.257812 76.460938 53.257812 76.398438 53.257812 76.335938 L 53.628906 74.929688 C 53.648438 74.847656 53.730469 74.785156 53.8125 74.785156 L 62.019531 74.785156 C 62.082031 74.785156 62.125 74.804688 62.164062 74.847656 C 62.207031 74.890625 62.207031 74.953125 62.207031 75.011719 L 61.832031 76.417969 C 61.792969 76.523438 61.730469 76.5625 61.648438 76.5625 Z M 53.503906 76.335938 L 61.605469 76.335938 L 61.9375 75.035156 L 53.835938 75.035156 Z M 53.503906 76.335938 "/>
</g>
<mask id="mask34">
  <g filter="url(#alpha)">
<rect x="0" y="0" width="97" height="97" style="fill:rgb(0%,0%,0%);fill-opacity:0.458824;stroke:none;"/>
  </g>
</mask>
<clipPath id="clip35">
  <rect x="0" y="0" width="97" height="97"/>
</clipPath>
<g id="surface103" clip-path="url(#clip35)">
<path style=" stroke:none;fill-rule:nonzero;fill:rgb(51.764706%,68.235294%,89.803922%);fill-opacity:1;" d="M 51.4375 76.5625 L 43.230469 76.5625 C 43.167969 76.5625 43.128906 76.542969 43.085938 76.5 C 43.046875 76.460938 43.046875 76.398438 43.046875 76.335938 L 43.417969 74.929688 C 43.4375 74.847656 43.519531 74.785156 43.605469 74.785156 L 51.808594 74.785156 C 51.871094 74.785156 51.914062 74.804688 51.953125 74.847656 C 51.996094 74.890625 51.996094 74.953125 51.996094 75.011719 L 51.625 76.417969 C 51.582031 76.523438 51.519531 76.5625 51.4375 76.5625 Z M 43.292969 76.335938 L 51.394531 76.335938 L 51.726562 75.035156 L 43.625 75.035156 Z M 43.292969 76.335938 "/>
</g>
<clipPath id="clip27">
  <rect x="0" y="0" width="97" height="97"/>
</clipPath>
<g id="surface105" clip-path="url(#clip27)">
<use xlink:href="#surface82" mask="url(#mask27)"/>
<use xlink:href="#surface85" mask="url(#mask28)"/>
<use xlink:href="#surface88" mask="url(#mask29)"/>
<use xlink:href="#surface91" mask="url(#mask30)"/>
<use xlink:href="#surface94" mask="url(#mask31)"/>
<use xlink:href="#surface97" mask="url(#mask32)"/>
<use xlink:href="#surface100" mask="url(#mask33)"/>
<use xlink:href="#surface103" mask="url(#mask34)"/>
</g>
<mask id="mask35">
  <g filter="url(#alpha)">
<rect x="0" y="0" width="97" height="97" style="fill:rgb(0%,0%,0%);fill-opacity:0.458824;stroke:none;"/>
  </g>
</mask>
<clipPath id="clip36">
  <rect x="0" y="0" width="97" height="97"/>
</clipPath>
<g id="surface108" clip-path="url(#clip36)">
<path style=" stroke:none;fill-rule:nonzero;fill:rgb(55.294118%,73.72549%,97.254902%);fill-opacity:1;" d="M 76.074219 74.414062 C 75.660156 73.855469 73.945312 73.441406 73.472656 72.882812 C 73.222656 72.59375 73.222656 72.058594 73.285156 71.625 C 73.449219 71.519531 73.59375 71.417969 73.675781 71.3125 C 73.820312 71.105469 73.988281 70.816406 74.132812 70.507812 C 74.171875 70.546875 74.234375 70.589844 74.339844 70.589844 C 74.566406 70.589844 75.414062 69.414062 75.1875 69.144531 C 75.0625 69 74.855469 69.121094 74.710938 69.265625 C 74.9375 68.75 75.105469 68.359375 75.105469 68.359375 C 75.125 68.296875 75.144531 68.234375 75.164062 68.152344 C 75.496094 66.789062 74.667969 65.691406 73.324219 65.691406 C 71.960938 65.691406 70.597656 66.789062 70.246094 68.152344 C 70.226562 68.214844 70.226562 68.277344 70.203125 68.359375 C 70.203125 68.359375 70.164062 68.75 70.144531 69.265625 C 70.058594 69.121094 69.9375 69 69.730469 69.144531 C 69.378906 69.414062 69.648438 70.570312 69.875 70.589844 C 69.957031 70.589844 70.039062 70.546875 70.101562 70.507812 C 70.101562 70.816406 70.121094 71.105469 70.164062 71.3125 C 70.203125 71.4375 70.328125 71.5625 70.472656 71.707031 C 70.308594 72.140625 70.039062 72.636719 69.6875 72.90625 C 68.945312 73.464844 67.023438 73.875 66.320312 74.433594 C 65.699219 74.929688 65.121094 76.417969 65.015625 76.707031 L 76.261719 76.707031 C 76.28125 76.378906 76.445312 74.910156 76.074219 74.414062 Z M 76.074219 74.414062 "/>
</g>
<clipPath id="clip25">
  <rect x="0" y="0" width="97" height="97"/>
</clipPath>
<g id="surface110" clip-path="url(#clip25)">
<use xlink:href="#surface78" mask="url(#mask25)"/>
<use xlink:href="#surface105" mask="url(#mask26)"/>
<use xlink:href="#surface108" mask="url(#mask35)"/>
</g>
</defs>
<g id="surface1">
<use xlink:href="#surface38" mask="url(#mask0)"/>
<path style=" stroke:none;fill-rule:nonzero;fill:rgb(43.921569%,58.039216%,84.705882%);fill-opacity:1;" d="M 82.425781 36.519531 L 32.835938 36.519531 C 32.535156 36.519531 32.28125 36.378906 32.097656 36.148438 C 31.910156 35.917969 31.863281 35.617188 31.933594 35.339844 L 36.558594 17.539062 C 36.671875 17.121094 37.042969 16.84375 37.460938 16.84375 L 87.046875 16.84375 C 87.347656 16.84375 87.601562 16.984375 87.789062 17.214844 C 87.972656 17.445312 88.019531 17.746094 87.949219 18.023438 L 83.324219 35.800781 C 83.234375 36.21875 82.863281 36.519531 82.425781 36.519531 Z M 37.460938 17.121094 C 37.160156 17.121094 36.90625 17.332031 36.8125 17.609375 L 32.1875 35.410156 C 32.140625 35.617188 32.1875 35.824219 32.304688 35.988281 C 32.417969 36.148438 32.628906 36.242188 32.835938 36.242188 L 82.425781 36.242188 C 82.722656 36.242188 83 36.035156 83.070312 35.757812 L 87.695312 17.976562 C 87.742188 17.769531 87.695312 17.5625 87.578125 17.398438 C 87.464844 17.238281 87.253906 17.144531 87.046875 17.144531 L 37.460938 17.144531 Z M 37.460938 17.121094 "/>
<path style=" stroke:none;fill-rule:nonzero;fill:rgb(70.588235%,80.784314%,100%);fill-opacity:1;" d="M 81.5 35.0625 L 31.910156 35.0625 C 31.378906 35.0625 31.007812 34.578125 31.148438 34.070312 L 35.773438 16.265625 C 35.863281 15.921875 36.1875 15.667969 36.535156 15.667969 L 86.121094 15.667969 C 86.65625 15.667969 87.023438 16.152344 86.886719 16.660156 L 82.261719 34.460938 C 82.191406 34.808594 81.867188 35.0625 81.5 35.0625 Z M 81.5 35.0625 "/>
<path style=" stroke:none;fill-rule:nonzero;fill:rgb(71.764706%,87.058824%,100%);fill-opacity:1;" d="M 77.5 32.402344 L 66.355469 32.402344 C 65.847656 32.402344 65.523438 31.988281 65.664062 31.480469 L 68.460938 20.175781 C 68.597656 19.664062 69.109375 19.25 69.617188 19.25 L 80.761719 19.25 C 81.269531 19.25 81.59375 19.664062 81.453125 20.175781 L 78.65625 31.457031 C 78.539062 31.988281 78.007812 32.402344 77.5 32.402344 Z M 77.5 32.402344 "/>
<path style=" stroke:none;fill-rule:nonzero;fill:rgb(0.784314%,24.705882%,38.039216%);fill-opacity:1;" d="M 72.019531 32.449219 L 72.992188 28.542969 L 71.398438 27.871094 C 71.398438 27.871094 68.414062 28.960938 68.160156 29.238281 C 67.953125 29.46875 66.867188 31.734375 66.542969 32.472656 L 72.019531 32.472656 Z M 72.019531 32.449219 "/>
<path style=" stroke:none;fill-rule:nonzero;fill:rgb(0.784314%,24.705882%,38.039216%);fill-opacity:1;" d="M 77.546875 32.449219 C 77.570312 31.710938 77.640625 29.445312 77.546875 29.214844 C 77.429688 28.960938 74.980469 27.851562 74.980469 27.851562 L 73.039062 28.519531 L 72.066406 32.425781 L 77.546875 32.425781 Z M 77.546875 32.449219 "/>
<path style=" stroke:none;fill-rule:nonzero;fill:rgb(74.509804%,74.509804%,81.176471%);fill-opacity:1;" d="M 73.039062 32.449219 L 74.5625 29.050781 L 71.28125 29.238281 L 70.957031 32.449219 Z M 73.039062 32.449219 "/>
<path style=" stroke:none;fill-rule:nonzero;fill:rgb(87.058824%,87.843137%,90.980392%);fill-opacity:1;" d="M 71.996094 27.132812 L 71.28125 27.59375 L 70.820312 28.703125 L 70.679688 30.253906 L 71.695312 29.835938 L 72.484375 30.785156 L 73.523438 29.929688 L 74.171875 30.53125 L 75.140625 28.449219 L 74.957031 27.179688 L 74.5625 26.996094 Z M 71.996094 27.132812 "/>
<path style=" stroke:none;fill-rule:nonzero;fill:rgb(97.647059%,57.647059%,32.156863%);fill-opacity:1;" d="M 72.207031 24.175781 C 72.207031 24.175781 71.972656 23.617188 71.464844 23.988281 C 70.980469 24.359375 71.558594 25.746094 71.90625 25.328125 C 72.273438 24.914062 72.207031 24.175781 72.207031 24.175781 Z M 72.207031 24.175781 "/>
<path style=" stroke:none;fill-rule:nonzero;fill:rgb(97.647059%,57.647059%,32.156863%);fill-opacity:1;" d="M 75.71875 24.152344 C 75.71875 24.152344 76.183594 23.574219 76.550781 23.894531 C 76.898438 24.21875 75.742188 25.699219 75.558594 25.308594 C 75.351562 24.890625 75.71875 24.152344 75.71875 24.152344 Z M 75.71875 24.152344 "/>
<path style=" stroke:none;fill-rule:nonzero;fill:rgb(97.647059%,57.647059%,32.156863%);fill-opacity:1;" d="M 74.632812 28.21875 L 75.140625 25.539062 L 72.230469 25.792969 L 71.582031 28.3125 C 71.582031 28.3125 72.089844 29.492188 72.644531 30.023438 C 72.621094 30.023438 74.332031 28.566406 74.632812 28.21875 Z M 74.632812 28.21875 "/>
<path style=" stroke:none;fill-rule:nonzero;fill:rgb(44.313725%,20%,21.176471%);fill-opacity:1;" d="M 76.992188 23.0625 C 76.875 23.386719 76.621094 23.480469 76.597656 23.664062 C 76.574219 23.851562 76.460938 24.335938 76.273438 24.519531 C 76.089844 24.707031 75.996094 24.773438 75.996094 24.773438 C 75.996094 24.773438 73.5 25.46875 72.230469 24.496094 C 72.230469 24.496094 72.136719 24.128906 72.230469 23.6875 C 72.320312 23.25 72.113281 23.179688 72.34375 22.949219 C 72.597656 22.742188 72.667969 22.53125 72.667969 22.300781 C 72.667969 22.046875 72.691406 21.769531 72.945312 21.515625 C 73.199219 21.261719 73.429688 21.351562 73.664062 21.144531 C 73.664062 21.144531 74.03125 20.542969 74.519531 20.453125 C 75.003906 20.382812 76.019531 20.128906 76.621094 20.867188 C 77.222656 21.609375 76.945312 22.253906 77.128906 22.484375 C 77.292969 22.742188 76.992188 23.0625 76.992188 23.0625 Z M 76.992188 23.0625 "/>
<path style=" stroke:none;fill-rule:nonzero;fill:rgb(100%,68.235294%,45.098039%);fill-opacity:1;" d="M 72.207031 23.710938 C 72.207031 23.710938 71.027344 26.972656 73.246094 27.203125 C 75.210938 27.25 75.90625 24.84375 76.183594 23.617188 C 76.460938 22.394531 76.296875 21.097656 74.726562 21.144531 C 73.152344 21.191406 72.367188 22.972656 72.207031 23.710938 Z M 72.207031 23.710938 "/>
<path style=" stroke:none;fill-rule:nonzero;fill:rgb(44.313725%,20%,21.176471%);fill-opacity:1;" d="M 72.808594 22.554688 C 72.808594 22.554688 72.945312 22.808594 72.808594 23.085938 C 72.667969 23.339844 72.296875 23.457031 72.25 23.804688 C 72.207031 24.152344 72.042969 24.867188 71.929688 24.914062 C 71.835938 24.9375 71.90625 24.21875 71.90625 23.964844 C 71.929688 23.710938 72.113281 22.671875 72.644531 22 C 73.175781 21.332031 73.5 21.054688 74.425781 20.914062 C 75.351562 20.753906 76.066406 21.144531 76.320312 21.722656 C 76.574219 22.300781 76.160156 23.734375 76.160156 23.734375 C 76.160156 23.734375 76.226562 23.042969 75.996094 22.878906 C 75.765625 22.71875 75.582031 22.601562 75.605469 22.507812 C 75.652344 22.417969 74.863281 22.765625 74.078125 22.507812 C 73.292969 22.253906 73.0625 22.371094 72.921875 22.464844 C 72.851562 22.484375 72.808594 22.554688 72.808594 22.554688 Z M 72.808594 22.554688 "/>
<path style=" stroke:none;fill-rule:nonzero;fill:rgb(0.784314%,15.294118%,33.333333%);fill-opacity:1;" d="M 70.265625 32.382812 L 70.171875 32.335938 L 70.402344 31.847656 L 69.476562 31.386719 L 69.5 31.339844 C 69.917969 30.324219 70.5625 28.796875 70.585938 28.726562 L 70.703125 28.75 C 70.679688 28.820312 69.847656 30.808594 69.640625 31.316406 L 70.585938 31.78125 Z M 70.265625 32.382812 "/>
<path style=" stroke:none;fill-rule:nonzero;fill:rgb(0.784314%,15.294118%,33.333333%);fill-opacity:1;" d="M 73.777344 32.359375 L 73.777344 31.804688 L 74.957031 31.339844 C 75.003906 30.855469 75.164062 28.820312 75.164062 28.75 L 75.28125 28.773438 C 75.257812 28.84375 75.140625 30.371094 75.074219 31.386719 L 75.074219 31.433594 L 73.894531 31.894531 L 73.894531 32.378906 L 73.777344 32.378906 Z M 73.777344 32.359375 "/>
<path style=" stroke:none;fill-rule:nonzero;fill:rgb(100%,100%,100%);fill-opacity:1;" d="M 77.5 32.519531 L 66.355469 32.519531 C 66.078125 32.519531 65.824219 32.402344 65.664062 32.195312 C 65.5 31.988281 65.457031 31.710938 65.523438 31.410156 L 68.34375 20.128906 C 68.484375 19.550781 69.0625 19.089844 69.640625 19.089844 L 80.78125 19.089844 C 81.058594 19.089844 81.316406 19.203125 81.476562 19.410156 C 81.636719 19.621094 81.683594 19.898438 81.613281 20.199219 L 78.792969 31.503906 C 78.65625 32.058594 78.078125 32.519531 77.5 32.519531 Z M 69.617188 19.386719 C 69.15625 19.386719 68.691406 19.757812 68.578125 20.222656 L 65.777344 31.503906 C 65.734375 31.710938 65.757812 31.917969 65.871094 32.058594 C 65.988281 32.195312 66.148438 32.265625 66.355469 32.265625 L 77.5 32.265625 C 77.960938 32.265625 78.425781 31.894531 78.539062 31.433594 L 81.359375 20.152344 C 81.40625 19.941406 81.382812 19.734375 81.269531 19.597656 C 81.152344 19.457031 80.992188 19.386719 80.78125 19.386719 Z M 69.617188 19.386719 "/>
<path style=" stroke:none;fill-rule:nonzero;fill:rgb(45.098039%,64.705882%,100%);fill-opacity:1;" d="M 55.976562 20.3125 L 38.707031 20.3125 C 38.476562 20.3125 38.316406 20.128906 38.316406 19.921875 C 38.316406 19.710938 38.5 19.527344 38.707031 19.527344 L 55.976562 19.527344 C 56.207031 19.527344 56.371094 19.710938 56.371094 19.921875 C 56.371094 20.128906 56.183594 20.3125 55.976562 20.3125 Z M 55.976562 20.3125 "/>
<path style=" stroke:none;fill-rule:nonzero;fill:rgb(45.098039%,64.705882%,100%);fill-opacity:1;" d="M 54.636719 28.289062 L 37.367188 28.289062 C 37.136719 28.289062 36.972656 28.105469 36.972656 27.894531 C 36.972656 27.6875 37.160156 27.503906 37.367188 27.503906 L 54.636719 27.503906 C 54.867188 27.503906 55.027344 27.6875 55.027344 27.894531 C 55.027344 28.105469 54.867188 28.289062 54.636719 28.289062 Z M 54.636719 28.289062 "/>
<path style=" stroke:none;fill-rule:nonzero;fill:rgb(45.098039%,64.705882%,100%);fill-opacity:1;" d="M 61.894531 25.261719 L 44.625 25.261719 C 44.394531 25.261719 44.234375 25.074219 44.234375 24.867188 C 44.234375 24.660156 44.417969 24.472656 44.625 24.472656 L 61.894531 24.472656 C 62.125 24.472656 62.289062 24.660156 62.289062 24.867188 C 62.289062 25.074219 62.125 25.261719 61.894531 25.261719 Z M 61.894531 25.261719 "/>
<path style=" stroke:none;fill-rule:nonzero;fill:rgb(45.098039%,64.705882%,100%);fill-opacity:1;" d="M 43.445312 22.972656 L 38.269531 22.972656 C 38.039062 22.972656 37.875 22.785156 37.875 22.578125 C 37.875 22.371094 38.058594 22.1875 38.269531 22.1875 L 43.445312 22.1875 C 43.679688 22.1875 43.839844 22.371094 43.839844 22.578125 C 43.839844 22.785156 43.65625 22.972656 43.445312 22.972656 Z M 43.445312 22.972656 "/>
<path style=" stroke:none;fill-rule:nonzero;fill:rgb(45.098039%,64.705882%,100%);fill-opacity:1;" d="M 42.730469 25.261719 L 37.550781 25.261719 C 37.320312 25.261719 37.160156 25.074219 37.160156 24.867188 C 37.160156 24.660156 37.34375 24.472656 37.550781 24.472656 L 42.730469 24.472656 C 42.960938 24.472656 43.125 24.660156 43.125 24.867188 C 43.125 25.074219 42.960938 25.261719 42.730469 25.261719 Z M 42.730469 25.261719 "/>
<path style=" stroke:none;fill-rule:nonzero;fill:rgb(45.098039%,64.705882%,100%);fill-opacity:1;" d="M 64.855469 20.3125 L 58.707031 20.3125 C 58.472656 20.3125 58.3125 20.128906 58.3125 19.921875 C 58.3125 19.710938 58.496094 19.527344 58.707031 19.527344 L 64.855469 19.527344 C 65.085938 19.527344 65.246094 19.710938 65.246094 19.921875 C 65.246094 20.128906 65.085938 20.3125 64.855469 20.3125 Z M 64.855469 20.3125 "/>
<path style=" stroke:none;fill-rule:nonzero;fill:rgb(43.921569%,58.039216%,84.705882%);fill-opacity:1;" d="M 61.734375 31.757812 L 52.53125 31.757812 C 52.464844 31.757812 52.417969 31.734375 52.371094 31.6875 C 52.324219 31.640625 52.324219 31.570312 52.324219 31.503906 L 52.742188 29.929688 C 52.761719 29.835938 52.855469 29.769531 52.949219 29.769531 L 62.125 29.769531 C 62.195312 29.769531 62.242188 29.792969 62.289062 29.835938 C 62.335938 29.882812 62.335938 29.953125 62.335938 30.023438 L 61.917969 31.59375 C 61.894531 31.6875 61.824219 31.757812 61.734375 31.757812 Z M 52.625 31.480469 L 61.6875 31.480469 L 62.058594 30.023438 L 52.996094 30.023438 Z M 52.625 31.480469 "/>
<path style=" stroke:none;fill-rule:nonzero;fill:rgb(43.921569%,58.039216%,84.705882%);fill-opacity:1;" d="M 50.3125 31.757812 L 41.136719 31.757812 C 41.066406 31.757812 41.019531 31.734375 40.972656 31.6875 C 40.925781 31.640625 40.925781 31.570312 40.925781 31.503906 L 41.34375 29.929688 C 41.367188 29.835938 41.457031 29.769531 41.550781 29.769531 L 50.730469 29.769531 C 50.796875 29.769531 50.84375 29.792969 50.890625 29.835938 C 50.9375 29.882812 50.9375 29.953125 50.9375 30.023438 L 50.519531 31.59375 C 50.476562 31.6875 50.40625 31.757812 50.3125 31.757812 Z M 41.203125 31.480469 L 50.265625 31.480469 L 50.636719 30.023438 L 41.574219 30.023438 Z M 41.203125 31.480469 "/>
<path style=" stroke:none;fill-rule:nonzero;fill:rgb(94.901961%,35.686275%,14.117647%);fill-opacity:1;" d="M 80.753906 58.421875 L 34.226562 58.421875 C 33.726562 58.421875 33.378906 57.964844 33.511719 57.488281 L 37.847656 40.785156 C 37.9375 40.460938 38.238281 40.222656 38.566406 40.222656 L 85.09375 40.222656 C 85.59375 40.222656 85.941406 40.675781 85.808594 41.152344 L 81.472656 57.855469 C 81.40625 58.203125 81.101562 58.421875 80.753906 58.421875 Z M 80.753906 58.421875 "/>
<path style=" stroke:none;fill-rule:nonzero;fill:rgb(100%,100%,100%);fill-opacity:0.639216;" d="M 56.808594 44.191406 L 40.605469 44.191406 C 40.386719 44.191406 40.234375 44.015625 40.234375 43.820312 C 40.234375 43.625 40.410156 43.453125 40.605469 43.453125 L 56.808594 43.453125 C 57.023438 43.453125 57.175781 43.625 57.175781 43.820312 C 57.175781 44.015625 57.003906 44.191406 56.808594 44.191406 Z M 56.808594 44.191406 "/>
<path style=" stroke:none;fill-rule:nonzero;fill:rgb(100%,100%,100%);fill-opacity:0.639216;" d="M 55.550781 51.652344 L 39.34375 51.652344 C 39.128906 51.652344 38.976562 51.480469 38.976562 51.285156 C 38.976562 51.089844 39.148438 50.914062 39.34375 50.914062 L 55.550781 50.914062 C 55.765625 50.914062 55.917969 51.089844 55.917969 51.285156 C 55.917969 51.480469 55.765625 51.652344 55.550781 51.652344 Z M 55.550781 51.652344 "/>
<path style=" stroke:none;fill-rule:nonzero;fill:rgb(100%,100%,100%);fill-opacity:0.639216;" d="M 62.359375 48.832031 L 46.15625 48.832031 C 45.941406 48.832031 45.789062 48.660156 45.789062 48.464844 C 45.789062 48.269531 45.960938 48.09375 46.15625 48.09375 L 62.359375 48.09375 C 62.578125 48.09375 62.730469 48.269531 62.730469 48.464844 C 62.730469 48.660156 62.578125 48.832031 62.359375 48.832031 Z M 62.359375 48.832031 "/>
<path style=" stroke:none;fill-rule:nonzero;fill:rgb(100%,100%,100%);fill-opacity:0.639216;" d="M 45.050781 46.683594 L 40.191406 46.683594 C 39.972656 46.683594 39.824219 46.511719 39.824219 46.316406 C 39.824219 46.121094 39.996094 45.949219 40.191406 45.949219 L 45.050781 45.949219 C 45.265625 45.949219 45.417969 46.121094 45.417969 46.316406 C 45.417969 46.511719 45.246094 46.683594 45.050781 46.683594 Z M 45.050781 46.683594 "/>
<path style=" stroke:none;fill-rule:nonzero;fill:rgb(100%,100%,100%);fill-opacity:0.639216;" d="M 44.378906 48.832031 L 39.519531 48.832031 C 39.300781 48.832031 39.152344 48.660156 39.152344 48.464844 C 39.152344 48.269531 39.324219 48.09375 39.519531 48.09375 L 44.378906 48.09375 C 44.59375 48.09375 44.746094 48.269531 44.746094 48.464844 C 44.746094 48.660156 44.59375 48.832031 44.378906 48.832031 Z M 44.378906 48.832031 "/>
<path style=" stroke:none;fill-rule:nonzero;fill:rgb(100%,100%,100%);fill-opacity:0.639216;" d="M 65.136719 44.191406 L 59.367188 44.191406 C 59.148438 44.191406 59 44.015625 59 43.820312 C 59 43.625 59.171875 43.453125 59.367188 43.453125 L 65.136719 43.453125 C 65.355469 43.453125 65.503906 43.625 65.503906 43.820312 C 65.503906 44.015625 65.355469 44.191406 65.136719 44.191406 Z M 65.136719 44.191406 "/>
<path style=" stroke:none;fill-rule:nonzero;fill:rgb(100%,100%,100%);fill-opacity:0.639216;" d="M 62.207031 54.90625 L 53.597656 54.90625 C 53.53125 54.90625 53.488281 54.882812 53.445312 54.839844 C 53.402344 54.796875 53.402344 54.734375 53.402344 54.667969 L 53.792969 53.191406 C 53.8125 53.105469 53.902344 53.039062 53.988281 53.039062 L 62.597656 53.039062 C 62.664062 53.039062 62.707031 53.0625 62.75 53.105469 C 62.792969 53.148438 62.792969 53.214844 62.792969 53.277344 L 62.402344 54.753906 C 62.359375 54.863281 62.296875 54.90625 62.207031 54.90625 Z M 53.660156 54.667969 L 62.164062 54.667969 L 62.511719 53.300781 L 54.007812 53.300781 Z M 53.660156 54.667969 "/>
<path style=" stroke:none;fill-rule:nonzero;fill:rgb(100%,100%,100%);fill-opacity:0.639216;" d="M 51.492188 54.90625 L 42.882812 54.90625 C 42.816406 54.90625 42.773438 54.882812 42.730469 54.839844 C 42.6875 54.796875 42.6875 54.734375 42.6875 54.667969 L 43.078125 53.191406 C 43.097656 53.105469 43.183594 53.039062 43.273438 53.039062 L 51.882812 53.039062 C 51.949219 53.039062 51.992188 53.0625 52.035156 53.105469 C 52.078125 53.148438 52.078125 53.214844 52.078125 53.277344 L 51.6875 54.753906 C 51.644531 54.863281 51.578125 54.90625 51.492188 54.90625 Z M 42.945312 54.667969 L 51.449219 54.667969 L 51.796875 53.300781 L 43.292969 53.300781 Z M 42.945312 54.667969 "/>
<path style=" stroke:none;fill-rule:nonzero;fill:rgb(100%,100%,100%);fill-opacity:0.639216;" d="M 77.347656 52.652344 C 76.914062 52.0625 75.113281 51.628906 74.617188 51.046875 C 74.355469 50.742188 74.355469 50.175781 74.421875 49.722656 C 74.59375 49.613281 74.746094 49.503906 74.832031 49.394531 C 74.984375 49.179688 75.160156 48.875 75.308594 48.550781 C 75.355469 48.59375 75.417969 48.636719 75.527344 48.636719 C 75.765625 48.636719 76.65625 47.402344 76.417969 47.117188 C 76.285156 46.96875 76.070312 47.097656 75.917969 47.25 C 76.15625 46.707031 76.328125 46.292969 76.328125 46.292969 C 76.351562 46.230469 76.375 46.164062 76.394531 46.078125 C 76.742188 44.644531 75.875 43.496094 74.464844 43.496094 C 73.03125 43.496094 71.601562 44.644531 71.230469 46.078125 C 71.210938 46.144531 71.210938 46.207031 71.1875 46.292969 C 71.1875 46.292969 71.144531 46.707031 71.125 47.25 C 71.039062 47.097656 70.90625 46.96875 70.691406 47.117188 C 70.320312 47.402344 70.601562 48.617188 70.839844 48.636719 C 70.929688 48.636719 71.015625 48.59375 71.082031 48.550781 C 71.082031 48.875 71.101562 49.179688 71.144531 49.394531 C 71.1875 49.527344 71.320312 49.65625 71.472656 49.808594 C 71.296875 50.265625 71.015625 50.785156 70.648438 51.066406 C 69.867188 51.652344 67.847656 52.085938 67.109375 52.671875 C 66.460938 53.191406 65.851562 54.753906 65.746094 55.058594 L 77.542969 55.058594 C 77.566406 54.710938 77.738281 53.171875 77.347656 52.652344 Z M 77.347656 52.652344 "/>
<use xlink:href="#surface74" mask="url(#mask12)"/>
<use xlink:href="#surface110" mask="url(#mask24)"/>
<path style=" stroke:none;fill-rule:nonzero;fill:rgb(74.901961%,85.098039%,100%);fill-opacity:1;" d="M 28.605469 9.886719 L 27.703125 9.886719 C 27.472656 9.886719 27.332031 9.703125 27.402344 9.472656 L 27.632812 8.570312 C 27.679688 8.339844 27.910156 8.152344 28.144531 8.152344 L 29.042969 8.152344 C 29.277344 8.152344 29.414062 8.339844 29.34375 8.570312 L 29.113281 9.472656 C 29.066406 9.703125 28.835938 9.886719 28.605469 9.886719 Z M 28.605469 9.886719 "/>
<path style=" stroke:none;fill-rule:nonzero;fill:rgb(92.941176%,95.686275%,100%);fill-opacity:1;" d="M 27.933594 12.546875 L 27.035156 12.546875 C 26.800781 12.546875 26.664062 12.359375 26.734375 12.128906 L 26.964844 11.226562 C 27.011719 10.996094 27.242188 10.8125 27.472656 10.8125 L 28.375 10.8125 C 28.605469 10.8125 28.742188 10.996094 28.675781 11.226562 L 28.445312 12.128906 C 28.398438 12.359375 28.167969 12.546875 27.933594 12.546875 Z M 27.933594 12.546875 "/>
<path style=" stroke:none;fill-rule:nonzero;fill:rgb(74.901961%,85.098039%,100%);fill-opacity:1;" d="M 30.824219 12.546875 L 29.921875 12.546875 C 29.691406 12.546875 29.554688 12.359375 29.621094 12.128906 L 29.855469 11.226562 C 29.898438 10.996094 30.132812 10.8125 30.363281 10.8125 L 31.265625 10.8125 C 31.496094 10.8125 31.632812 10.996094 31.5625 11.226562 L 31.332031 12.128906 C 31.285156 12.359375 31.054688 12.546875 30.824219 12.546875 Z M 30.824219 12.546875 "/>
<path style=" stroke:none;fill-rule:nonzero;fill:rgb(92.941176%,95.686275%,100%);fill-opacity:1;" d="M 33.714844 12.546875 L 32.8125 12.546875 C 32.582031 12.546875 32.441406 12.359375 32.511719 12.128906 L 32.742188 11.226562 C 32.789062 10.996094 33.019531 10.8125 33.25 10.8125 L 34.152344 10.8125 C 34.382812 10.8125 34.523438 10.996094 34.453125 11.226562 L 34.222656 12.128906 C 34.175781 12.359375 33.945312 12.546875 33.714844 12.546875 Z M 33.714844 12.546875 "/>
<path style=" stroke:none;fill-rule:nonzero;fill:rgb(92.941176%,95.686275%,100%);fill-opacity:1;" d="M 27.265625 15.273438 L 26.363281 15.273438 C 26.132812 15.273438 25.992188 15.089844 26.0625 14.855469 L 26.292969 13.957031 C 26.339844 13.722656 26.570312 13.539062 26.800781 13.539062 L 27.703125 13.539062 C 27.933594 13.539062 28.074219 13.722656 28.003906 13.957031 L 27.773438 14.855469 C 27.726562 15.089844 27.496094 15.273438 27.265625 15.273438 Z M 27.265625 15.273438 "/>
<path style=" stroke:none;fill-rule:nonzero;fill:rgb(92.941176%,95.686275%,100%);fill-opacity:1;" d="M 26.523438 18.164062 L 25.621094 18.164062 C 25.390625 18.164062 25.253906 17.976562 25.324219 17.746094 L 25.554688 16.84375 C 25.601562 16.613281 25.832031 16.429688 26.0625 16.429688 L 26.964844 16.429688 C 27.195312 16.429688 27.332031 16.613281 27.265625 16.84375 L 27.03125 17.746094 C 26.988281 17.976562 26.753906 18.164062 26.523438 18.164062 Z M 26.523438 18.164062 "/>
<path style=" stroke:none;fill-rule:nonzero;fill:rgb(92.941176%,95.686275%,100%);fill-opacity:1;" d="M 30.152344 15.273438 L 29.253906 15.273438 C 29.019531 15.273438 28.882812 15.089844 28.953125 14.855469 L 29.183594 13.957031 C 29.230469 13.722656 29.460938 13.539062 29.691406 13.539062 L 30.59375 13.539062 C 30.824219 13.539062 30.964844 13.722656 30.894531 13.957031 L 30.664062 14.855469 C 30.617188 15.089844 30.386719 15.273438 30.152344 15.273438 Z M 30.152344 15.273438 "/>
<path style=" stroke:none;fill-rule:nonzero;fill:rgb(74.901961%,85.098039%,100%);fill-opacity:1;" d="M 28.882812 20.335938 L 27.980469 20.335938 C 27.75 20.335938 27.609375 20.152344 27.679688 19.921875 L 27.910156 19.019531 C 27.957031 18.789062 28.1875 18.601562 28.421875 18.601562 L 29.320312 18.601562 C 29.554688 18.601562 29.691406 18.789062 29.621094 19.019531 L 29.390625 19.921875 C 29.34375 20.152344 29.113281 20.335938 28.882812 20.335938 Z M 28.882812 20.335938 "/>
<path style=" stroke:none;fill-rule:nonzero;fill:rgb(92.156863%,92.941176%,98.823529%);fill-opacity:1;" d="M 43.167969 4.59375 C 43.148438 4.59375 43.148438 4.59375 43.167969 4.59375 C 43.148438 4.59375 43.125 4.59375 43.125 4.59375 C 43.03125 4.59375 42.9375 4.59375 42.847656 4.59375 C 40.164062 4.59375 37.4375 6.742188 36.71875 9.425781 L 36.695312 9.5625 C 36.695312 9.585938 36.695312 9.585938 36.695312 9.609375 L 36.671875 9.703125 C 36.074219 12.40625 37.828125 14.578125 40.625 14.464844 C 43.167969 14.371094 45.734375 12.335938 46.5 9.816406 C 47.261719 7.042969 45.757812 4.777344 43.167969 4.59375 Z M 45.019531 9.703125 C 44.488281 11.480469 42.636719 12.9375 40.835938 12.984375 C 38.894531 13.054688 37.691406 11.550781 38.082031 9.65625 L 38.128906 9.425781 C 38.636719 7.550781 40.558594 6.050781 42.453125 6.050781 C 42.546875 6.050781 42.636719 6.050781 42.730469 6.074219 C 44.558594 6.210938 45.597656 7.78125 45.019531 9.703125 Z M 45.019531 9.703125 "/>
<path style=" stroke:none;fill-rule:nonzero;fill:rgb(64.705882%,77.254902%,100%);fill-opacity:1;" d="M 42.890625 5.425781 C 42.800781 5.75 42.960938 6.050781 43.261719 6.140625 C 44.742188 6.535156 45.527344 7.992188 44.996094 9.703125 C 44.464844 11.480469 42.613281 12.9375 40.8125 12.984375 C 39.03125 13.03125 37.875 11.78125 37.992188 10.140625 C 38.015625 9.792969 37.78125 9.5625 37.414062 9.5625 C 36.972656 9.5625 36.511719 9.980469 36.488281 10.417969 C 36.328125 12.777344 37.992188 14.554688 40.535156 14.464844 C 43.078125 14.371094 45.644531 12.335938 46.40625 9.816406 C 47.144531 7.390625 46.035156 5.308594 43.933594 4.753906 C 43.539062 4.617188 43.007812 4.960938 42.890625 5.425781 Z M 42.890625 5.425781 "/>
<path style=" stroke:none;fill-rule:nonzero;fill:rgb(100%,100%,100%);fill-opacity:1;" d="M 55.421875 4.105469 C 55.421875 4.105469 55.398438 4.105469 55.421875 4.105469 C 55.398438 4.105469 55.375 4.105469 55.351562 4.105469 C 55.261719 4.105469 55.167969 4.105469 55.074219 4.105469 C 52.347656 4.105469 49.597656 6.304688 48.925781 9.03125 C 48.253906 11.757812 49.898438 13.957031 52.625 13.957031 C 52.71875 13.957031 52.808594 13.957031 52.902344 13.957031 C 52.925781 13.957031 52.949219 13.957031 52.949219 13.957031 C 52.949219 13.957031 52.949219 13.957031 52.972656 13.957031 C 55.5625 13.769531 58.105469 11.667969 58.773438 9.078125 C 58.773438 9.054688 58.773438 9.054688 58.796875 9.03125 C 59.421875 6.394531 57.941406 4.269531 55.421875 4.105469 Z M 53.226562 12.476562 C 53.15625 12.476562 53.085938 12.476562 53.039062 12.476562 C 53.019531 12.476562 52.996094 12.476562 52.972656 12.476562 C 51.050781 12.476562 49.898438 10.925781 50.359375 9.007812 C 50.820312 7.089844 52.785156 5.539062 54.707031 5.539062 C 54.730469 5.539062 54.75 5.539062 54.773438 5.539062 C 54.820312 5.539062 54.890625 5.539062 54.9375 5.539062 C 54.9375 5.539062 54.9375 5.539062 54.960938 5.539062 C 56.738281 5.65625 57.78125 7.160156 57.316406 9.007812 C 57.316406 9.03125 57.316406 9.03125 57.292969 9.054688 C 56.832031 10.882812 55.050781 12.359375 53.226562 12.476562 Z M 53.226562 12.476562 "/>
<path style=" stroke:none;fill-rule:nonzero;fill:rgb(74.901961%,85.098039%,100%);fill-opacity:1;" d="M 57.109375 9.65625 C 56.507812 11.042969 55.121094 12.152344 53.664062 12.40625 C 53.296875 12.476562 52.972656 12.777344 52.878906 13.125 C 52.761719 13.585938 53.085938 13.933594 53.574219 13.839844 C 55.652344 13.46875 57.59375 11.898438 58.472656 9.910156 C 58.660156 9.472656 58.425781 9.054688 57.964844 9.054688 C 57.617188 9.054688 57.25 9.308594 57.109375 9.65625 Z M 57.109375 9.65625 "/>
<path style=" stroke:none;fill-rule:nonzero;fill:rgb(92.941176%,95.686275%,100%);fill-opacity:1;" d="M 42.335938 21.445312 L 33.160156 21.445312 C 33.113281 21.445312 33.089844 21.398438 33.089844 21.351562 L 33.507812 19.78125 C 33.507812 19.757812 33.550781 19.734375 33.574219 19.734375 L 42.753906 19.734375 C 42.800781 19.734375 42.824219 19.78125 42.824219 19.828125 L 42.40625 21.398438 C 42.40625 21.421875 42.382812 21.445312 42.335938 21.445312 Z M 42.335938 21.445312 "/>
<path style=" stroke:none;fill-rule:nonzero;fill:rgb(94.901961%,35.686275%,14.117647%);fill-opacity:1;" d="M 84.953125 28.777344 C 86.867188 27.085938 87.351562 24.507812 86.03125 23.011719 C 84.714844 21.519531 82.09375 21.679688 80.179688 23.371094 C 78.265625 25.058594 77.78125 27.640625 79.101562 29.132812 C 80.417969 30.625 83.039062 30.46875 84.953125 28.777344 Z M 84.953125 28.777344 "/>
<path style=" stroke:none;fill-rule:nonzero;fill:rgb(94.901961%,35.686275%,14.117647%);fill-opacity:1;" d="M 88.597656 30.4375 C 88.433594 31.0625 87.8125 31.546875 87.210938 31.546875 C 86.585938 31.546875 86.214844 31.039062 86.378906 30.4375 C 86.539062 29.816406 87.164062 29.328125 87.765625 29.328125 C 88.367188 29.328125 88.734375 29.835938 88.597656 30.4375 Z M 88.597656 30.4375 "/>
<path style=" stroke:none;fill-rule:nonzero;fill:rgb(100%,100%,100%);fill-opacity:1;" d="M 81.523438 28.148438 C 81.382812 28.148438 81.269531 28.105469 81.199219 28.011719 L 80.136719 26.601562 C 79.996094 26.417969 80.066406 26.09375 80.320312 25.882812 C 80.574219 25.699219 80.875 25.699219 81.039062 25.882812 L 81.824219 26.925781 L 84.644531 24.683594 C 84.898438 24.496094 85.199219 24.496094 85.359375 24.683594 C 85.5 24.867188 85.429688 25.191406 85.175781 25.398438 L 81.890625 27.988281 C 81.777344 28.082031 81.636719 28.148438 81.523438 28.148438 Z M 81.523438 28.148438 "/>
<path style=" stroke:none;fill-rule:nonzero;fill:rgb(17.647059%,15.294118%,21.568627%);fill-opacity:1;" d="M 12.898438 90.675781 C 12.898438 90.675781 13.296875 89.859375 14.667969 90.117188 C 16.035156 90.378906 16.191406 90.675781 16.332031 91.386719 C 16.476562 92.121094 16.917969 92.917969 17.242188 93.070312 C 17.5625 93.253906 18.703125 94.113281 19.65625 94.3125 C 20.605469 94.511719 20.707031 95.125 20.464844 95.386719 C 20.246094 95.648438 16.625 95.785156 15.835938 95.640625 C 15.835938 95.640625 13.128906 95.511719 12.484375 95.273438 C 11.882812 95.035156 12.84375 90.941406 12.898438 90.675781 Z M 12.898438 90.675781 "/>
<path style=" stroke:none;fill-rule:nonzero;fill:rgb(17.647059%,8.627451%,52.54902%);fill-opacity:1;" d="M 11.933594 71.085938 C 11.933594 71.085938 11.605469 68.785156 13.9375 68.070312 C 16.292969 67.359375 16.703125 68.496094 17.339844 70.636719 C 17.976562 72.75 16.144531 90.648438 16.144531 90.648438 C 16.144531 90.648438 13.449219 91.058594 12.785156 90.601562 C 12.785156 90.601562 11.097656 78.867188 11.332031 75.679688 C 11.566406 72.464844 11.933594 71.085938 11.933594 71.085938 Z M 11.933594 71.085938 "/>
<path style=" stroke:none;fill-rule:nonzero;fill:rgb(30.588235%,20%,70.980392%);fill-opacity:1;" d="M 12.527344 89.886719 C 12.527344 89.886719 15.566406 89.707031 16.527344 89.5625 L 16.4375 91 C 16.4375 91 14.023438 91.367188 12.558594 91.105469 Z M 12.527344 89.886719 "/>
<path style=" stroke:none;fill-rule:nonzero;fill:rgb(30.588235%,20%,70.980392%);fill-opacity:1;" d="M 12.949219 26.273438 C 12.949219 26.273438 11.035156 26.394531 9.871094 30.953125 C 8.703125 35.515625 7.957031 41.074219 8.375 42.511719 C 8.796875 43.949219 13.371094 47.851562 15.074219 47.851562 C 16.777344 47.851562 16.894531 46.511719 16.566406 45.414062 C 16.238281 44.292969 12.949219 41.292969 12.949219 41.292969 C 12.949219 41.292969 15.609375 32.394531 15.492188 30.054688 C 15.375 27.710938 14.117188 26.273438 12.949219 26.273438 Z M 12.949219 26.273438 "/>
<path style=" stroke:none;fill-rule:nonzero;fill:rgb(100%,68.235294%,45.098039%);fill-opacity:1;" d="M 36.9375 24.910156 L 36.609375 24.933594 L 37.332031 23.46875 C 37.332031 23.46875 39.152344 23.347656 39.433594 24.152344 L 38.59375 26.078125 Z M 36.9375 24.910156 "/>
<path style=" stroke:none;fill-rule:nonzero;fill:rgb(100%,68.235294%,45.098039%);fill-opacity:1;" d="M 37.960938 20.738281 C 37.960938 20.738281 37.894531 19.226562 38.40625 19.03125 C 38.917969 18.835938 39.480469 19.203125 39.480469 19.203125 C 39.480469 19.203125 40.320312 19.105469 40.578125 19.496094 C 40.832031 19.886719 40.808594 20.421875 40.808594 20.421875 C 40.808594 20.421875 41.277344 20.519531 41.394531 21.007812 C 41.507812 21.472656 41.300781 22.371094 41.300781 22.371094 C 41.300781 22.371094 40.761719 23.054688 40.132812 22.886719 C 39.527344 22.714844 37.960938 20.738281 37.960938 20.738281 Z M 37.960938 20.738281 "/>
<path style=" stroke:none;fill-rule:nonzero;fill:rgb(100%,68.235294%,45.098039%);fill-opacity:1;" d="M 37.007812 21.933594 C 37.007812 21.933594 36.820312 19.960938 37.007812 19.714844 C 37.214844 19.445312 39.292969 16.449219 39.292969 16.449219 C 39.292969 16.449219 39.714844 16.960938 39.480469 17.546875 C 39.222656 18.128906 38.242188 19.910156 38.242188 19.910156 L 38.242188 21.421875 C 38.242188 21.421875 37.613281 21.886719 37.007812 21.933594 Z M 37.007812 21.933594 "/>
<path style=" stroke:none;fill-rule:nonzero;fill:rgb(100%,68.235294%,45.098039%);fill-opacity:1;" d="M 37.167969 23.519531 C 37.167969 23.519531 36.679688 20.347656 37.007812 19.910156 C 37.355469 19.472656 39.011719 19.738281 39.316406 19.863281 C 39.644531 19.984375 40.507812 21.179688 40.621094 21.640625 C 40.738281 22.105469 39.921875 23.785156 39.410156 24.152344 C 38.941406 24.519531 37.449219 24.128906 37.167969 23.519531 Z M 37.167969 23.519531 "/>
<path style=" stroke:none;fill-rule:nonzero;fill:rgb(87.058824%,87.843137%,90.980392%);fill-opacity:1;" d="M 36.003906 25.617188 L 36.632812 24.394531 C 36.632812 24.394531 38.125 24.128906 38.875 25.347656 C 39.082031 25.785156 38.988281 25.785156 38.988281 25.785156 L 38.5 26.785156 Z M 36.003906 25.617188 "/>
<path style=" stroke:none;fill-rule:nonzero;fill:rgb(100%,68.235294%,45.098039%);fill-opacity:1;" d="M 20.429688 13.460938 C 20.429688 13.460938 21.730469 13.820312 22.488281 16.03125 C 23.226562 18.242188 22.738281 22.917969 22.234375 23.472656 C 21.730469 24.023438 20.234375 23.8125 18.160156 23.066406 C 15.945312 22.238281 15.207031 19.730469 14.820312 18.09375 C 14.0625 14.925781 16.566406 11.675781 20.429688 13.460938 Z M 20.429688 13.460938 "/>
<path style=" stroke:none;fill-rule:nonzero;fill:rgb(100%,68.235294%,45.098039%);fill-opacity:1;" d="M 15.730469 25.597656 L 16.800781 21.429688 C 16.800781 21.429688 18.914062 20.75 20.253906 22.300781 L 20.699219 22.980469 L 20.699219 25.703125 C 20.679688 25.703125 18.46875 26.191406 15.730469 25.597656 Z M 15.730469 25.597656 "/>
<path style=" stroke:none;fill-rule:nonzero;fill:rgb(17.647059%,8.627451%,52.54902%);fill-opacity:1;" d="M 11.308594 51.945312 C 11.308594 51.945312 10.351562 57.773438 11.308594 64.453125 C 12.117188 76.757812 14.128906 72.996094 15.878906 72.996094 C 17.628906 72.996094 18.167969 66.453125 18.472656 64.113281 C 18.796875 61.773438 20.058594 53.773438 17.679688 51.945312 C 15.296875 50.117188 12.589844 49.949219 11.308594 51.945312 Z M 11.308594 51.945312 "/>
<path style=" stroke:none;fill-rule:nonzero;fill:rgb(17.647059%,8.627451%,52.54902%);fill-opacity:1;" d="M 18.914062 59.265625 C 18.914062 59.265625 16.734375 54.347656 20.066406 51.96875 C 23.402344 49.585938 25.949219 49.898438 26.785156 53.714844 C 27.625 57.535156 27.945312 70.722656 26.855469 73.390625 C 22.085938 78.390625 21.929688 71.589844 18.914062 59.265625 Z M 18.914062 59.265625 "/>
<path style=" stroke:none;fill-rule:nonzero;fill:rgb(13.72549%,15.294118%,16.078431%);fill-opacity:1;" d="M 22.992188 13.652344 C 22.992188 13.652344 23.613281 14.542969 23.242188 15.585938 C 22.875 16.625 21.476562 17.03125 21.476562 17.03125 C 21.476562 17.03125 21.925781 17.710938 21.476562 18.6875 L 21.167969 19.242188 C 21.167969 19.242188 21.613281 20.347656 21.476562 20.621094 C 21.359375 20.898438 20.914062 20.835938 20.914062 20.835938 C 20.914062 20.835938 20.410156 19.285156 20.214844 19.433594 C 20.023438 19.558594 19.515625 20.261719 19.515625 20.878906 C 19.515625 21.496094 19.710938 21.984375 19.574219 22.386719 C 19.457031 22.792969 17.5 22.792969 16.683594 22.664062 C 15.867188 22.535156 14.605469 19.773438 14.296875 18.539062 C 14.296875 18.539062 13.847656 16.816406 14.488281 15.371094 C 14.488281 15.371094 14.371094 14.140625 15.441406 12.886719 C 16.507812 11.652344 19.90625 12.058594 20.46875 12.546875 C 20.46875 12.546875 20.410156 11.867188 21.03125 11.992188 C 21.671875 12.140625 22.601562 12.757812 22.992188 13.652344 Z M 22.992188 13.652344 "/>
<path style=" stroke:none;fill-rule:nonzero;fill:rgb(97.647059%,57.647059%,32.156863%);fill-opacity:1;" d="M 21.109375 19.921875 C 21.109375 19.921875 20.914062 19.027344 20.234375 19.433594 C 19.535156 19.835938 20.351562 21.984375 20.933594 21.835938 C 21.476562 21.707031 21.226562 20.261719 21.109375 19.921875 Z M 21.109375 19.921875 "/>
<path style=" stroke:none;fill-rule:nonzero;fill:rgb(100%,100%,100%);fill-opacity:1;" d="M 14.511719 26.128906 C 14.511719 26.128906 14.863281 24.8125 15.1875 24.714844 C 15.515625 24.589844 19.4375 24.152344 21.582031 25.492188 C 22.539062 26.273438 22.421875 26.835938 22.421875 26.835938 C 22.421875 26.835938 16.074219 25.566406 14.511719 26.128906 Z M 14.511719 26.128906 "/>
<path style=" stroke:none;fill-rule:nonzero;fill:rgb(30.588235%,20%,70.980392%);fill-opacity:1;" d="M 13.695312 25.835938 C 13.695312 25.835938 20.300781 25.394531 24.964844 27.492188 C 27.089844 28.613281 31.964844 33.636719 31.964844 33.636719 L 35.792969 25.296875 C 35.792969 25.296875 37.941406 24.492188 38.804688 26.613281 C 38.804688 26.613281 36.375 36.464844 34.371094 39.5625 C 33.085938 40.683594 25.777344 35.890625 25.777344 35.890625 C 25.777344 35.890625 25.46875 39.441406 25.46875 44.398438 C 25.46875 49.355469 27.945312 55.726562 27.945312 55.726562 C 27.945312 55.726562 22.429688 56.5625 17.511719 56.679688 C 12.992188 56.117188 9.96875 55.726562 9.96875 55.726562 C 9.96875 55.726562 12.128906 41.867188 11.917969 40.304688 C 11.710938 38.746094 10.289062 30.613281 10.5 29.492188 C 10.734375 28.394531 11.6875 26.273438 13.695312 25.835938 Z M 13.695312 25.835938 "/>
<path style=" stroke:none;fill-rule:nonzero;fill:rgb(24.313725%,20%,26.27451%);fill-opacity:1;" d="M 21.464844 90.988281 C 21.464844 90.988281 21.828125 90.152344 23.207031 90.355469 C 24.585938 90.558594 24.75 90.851562 24.921875 91.554688 C 25.09375 92.285156 25.570312 93.058594 25.898438 93.203125 C 26.226562 93.367188 27.40625 94.183594 28.363281 94.34375 C 29.320312 94.503906 29.445312 95.109375 29.214844 95.382812 C 29.007812 95.652344 25.394531 95.9375 24.601562 95.824219 C 24.601562 95.824219 21.894531 95.808594 21.238281 95.597656 C 20.605469 95.386719 21.421875 91.28125 21.464844 90.988281 Z M 21.464844 90.988281 "/>
<path style=" stroke:none;fill-rule:nonzero;fill:rgb(17.647059%,8.627451%,52.54902%);fill-opacity:1;" d="M 21.886719 71.476562 C 21.886719 71.476562 21.695312 69.136719 24.09375 68.621094 C 26.488281 68.082031 26.808594 69.246094 27.324219 71.410156 C 27.839844 73.574219 24.851562 91.289062 24.851562 91.289062 C 24.851562 91.289062 22.148438 91.492188 21.488281 90.988281 C 21.488281 90.988281 20.554688 79.148438 20.984375 75.972656 C 21.414062 72.824219 21.886719 71.476562 21.886719 71.476562 Z M 21.886719 71.476562 "/>
<path style=" stroke:none;fill-rule:nonzero;fill:rgb(30.588235%,20%,70.980392%);fill-opacity:1;" d="M 21.257812 91.28125 C 21.257812 91.28125 23.339844 91.867188 25.085938 91.503906 L 25.234375 90.234375 L 21.195312 90.015625 Z M 21.257812 91.28125 "/>
<path style=" stroke:none;fill-rule:nonzero;fill:rgb(97.647059%,57.647059%,32.156863%);fill-opacity:1;" d="M 38.195312 19.617188 C 38.171875 19.617188 38.125 19.59375 38.101562 19.570312 C 38.054688 19.519531 38.054688 19.445312 38.101562 19.398438 L 38.757812 18.789062 L 38.804688 18.789062 C 38.828125 18.789062 39.292969 18.789062 39.574219 19.128906 C 39.621094 19.179688 39.621094 19.253906 39.550781 19.300781 C 39.503906 19.351562 39.433594 19.324219 39.386719 19.277344 C 39.222656 19.082031 38.964844 19.03125 38.851562 19.03125 L 38.265625 19.59375 C 38.242188 19.617188 38.21875 19.617188 38.195312 19.617188 Z M 38.195312 19.617188 "/>
<path style=" stroke:none;fill-rule:nonzero;fill:rgb(97.647059%,57.647059%,32.156863%);fill-opacity:1;" d="M 40.785156 20.519531 C 40.761719 20.519531 40.761719 20.519531 40.738281 20.519531 C 40.667969 20.496094 40.648438 20.421875 40.667969 20.347656 C 40.667969 20.347656 40.738281 20.128906 40.648438 19.738281 C 40.578125 19.445312 40.085938 19.253906 39.851562 19.179688 C 39.503906 19.375 39.105469 19.59375 39.035156 19.667969 C 39.011719 19.691406 38.988281 19.714844 38.941406 19.714844 C 38.875 19.714844 38.828125 19.667969 38.828125 19.59375 C 38.828125 19.496094 38.828125 19.472656 39.78125 18.933594 L 39.828125 18.910156 L 39.875 18.910156 C 39.96875 18.933594 40.761719 19.15625 40.902344 19.640625 C 41.019531 20.105469 40.925781 20.375 40.925781 20.398438 C 40.878906 20.496094 40.832031 20.519531 40.785156 20.519531 Z M 40.785156 20.519531 "/>
<path style=" stroke:none;fill-rule:nonzero;fill:rgb(97.647059%,57.647059%,32.156863%);fill-opacity:1;" d="M 40.296875 23.054688 L 40.273438 23.054688 C 40.203125 23.054688 40.15625 23.007812 40.15625 22.933594 C 40.15625 22.859375 40.203125 22.8125 40.273438 22.8125 L 40.296875 22.8125 C 40.808594 22.8125 41.160156 22.398438 41.230469 22.324219 C 41.253906 22.226562 41.394531 21.761719 41.394531 21.300781 C 41.394531 20.910156 41.160156 20.667969 41.089844 20.617188 C 40.601562 20.59375 40.085938 20.570312 40.015625 20.570312 C 39.945312 20.59375 39.898438 20.542969 39.875 20.496094 C 39.851562 20.421875 39.898438 20.347656 39.96875 20.324219 C 39.992188 20.324219 40.039062 20.300781 41.136719 20.375 L 41.160156 20.375 L 41.183594 20.398438 C 41.207031 20.421875 41.625 20.714844 41.625 21.324219 C 41.601562 21.886719 41.441406 22.421875 41.441406 22.445312 L 41.417969 22.46875 C 41.394531 22.445312 40.996094 23.054688 40.296875 23.054688 Z M 40.296875 23.054688 "/>
<path style=" stroke:none;fill-rule:nonzero;fill:rgb(97.647059%,57.647059%,32.156863%);fill-opacity:1;" d="M 39.433594 24.273438 C 39.386719 24.273438 39.363281 24.25 39.339844 24.226562 C 39.292969 24.175781 39.316406 24.078125 39.386719 24.054688 C 39.945312 23.6875 40.203125 22.957031 40.367188 22.46875 C 40.414062 22.347656 40.4375 22.226562 40.484375 22.152344 C 40.625 21.835938 40.53125 21.640625 40.53125 21.640625 C 40.507812 21.59375 40.507812 21.496094 40.578125 21.472656 C 40.625 21.445312 40.691406 21.445312 40.738281 21.519531 C 40.761719 21.542969 40.902344 21.8125 40.714844 22.25 C 40.691406 22.324219 40.648438 22.421875 40.601562 22.542969 C 40.4375 23.054688 40.15625 23.835938 39.527344 24.25 C 39.480469 24.273438 39.457031 24.273438 39.433594 24.273438 Z M 39.433594 24.273438 "/>
</g>
</svg>
