<?xml version="1.0" encoding="UTF-8"?>
<svg xmlns="http://www.w3.org/2000/svg" xmlns:xlink="http://www.w3.org/1999/xlink" width="73pt" height="16pt" viewBox="0 0 73 16" version="1.1">
<g id="surface1">
<path style=" stroke:none;fill-rule:evenodd;fill:rgb(100%,100%,100%);fill-opacity:1;" d="M 9.171875 0 C 4.011719 0 0 4.203125 0 9.316406 C 0 11.460938 0.738281 13.601562 2.128906 15.25 L 2.703125 15.910156 L 3.765625 14.839844 L 3.355469 14.261719 C 2.210938 12.859375 1.636719 11.128906 1.636719 9.316406 C 1.636719 5.027344 5.078125 1.566406 9.335938 1.566406 C 13.589844 1.566406 17.03125 5.027344 17.03125 9.316406 C 17.03125 11.128906 16.375 12.859375 15.308594 14.261719 L 14.902344 14.839844 L 15.964844 15.910156 L 16.539062 15.25 C 17.6875 13.519531 18.421875 11.460938 18.421875 9.316406 C 18.421875 4.203125 14.328125 0 9.171875 0 Z M 12.527344 5.195312 L 7.371094 9.316406 L 9.171875 11.128906 L 13.265625 5.933594 Z M 12.527344 5.195312 "/>
<path style=" stroke:none;fill-rule:evenodd;fill:rgb(94.901961%,35.686275%,14.117647%);fill-opacity:1;" d="M 26 1.511719 L 26 3.65625 L 30.175781 3.65625 L 30.175781 14.703125 L 32.46875 14.703125 L 32.46875 3.65625 L 36.644531 3.65625 L 36.644531 1.511719 Z M 39.019531 1.511719 L 39.019531 14.703125 L 48.84375 14.703125 L 48.84375 12.640625 L 41.3125 12.640625 L 41.3125 9.09375 L 47.863281 9.09375 L 47.863281 7.035156 L 41.3125 7.035156 L 41.3125 3.570312 L 48.761719 3.570312 L 48.761719 1.511719 Z M 55.804688 1.511719 C 53.183594 1.511719 51.300781 3.078125 51.300781 5.304688 C 51.300781 7.777344 52.855469 8.601562 55.640625 9.261719 C 58.097656 9.753906 58.589844 10.332031 58.589844 11.238281 C 58.589844 12.226562 57.6875 12.886719 56.296875 12.886719 C 54.660156 12.886719 53.347656 12.226562 52.121094 11.15625 L 50.730469 12.804688 C 52.285156 14.207031 54.167969 14.867188 56.296875 15.03125 C 59 15.03125 60.964844 13.546875 60.964844 11.074219 C 60.964844 8.847656 59.570312 7.859375 56.789062 7.199219 C 54.25 6.621094 53.675781 6.128906 53.675781 5.136719 C 53.675781 4.230469 54.496094 3.570312 55.804688 3.570312 C 56.953125 3.570312 58.179688 3.984375 59.324219 4.890625 L 60.554688 3.160156 C 59.246094 2.089844 57.6875 1.511719 55.804688 1.511719 Z M 62.355469 1.511719 L 62.355469 3.65625 L 66.53125 3.65625 L 66.53125 14.703125 L 68.824219 14.703125 L 68.824219 3.65625 L 73 3.65625 L 73 1.511719 Z M 62.355469 1.511719 "/>
</g>
</svg>
