<?xml version="1.0" encoding="UTF-8"?>
<svg xmlns="http://www.w3.org/2000/svg" xmlns:xlink="http://www.w3.org/1999/xlink" width="97pt" height="97pt" viewBox="0 0 97 97" version="1.1">
<g id="surface1">
<path style=" stroke:none;fill-rule:nonzero;fill:rgb(78.431373%,85.882353%,95.686275%);fill-opacity:1;" d="M 56.398438 63.09375 C 57.855469 62.167969 59.511719 61.609375 61.230469 61.441406 C 62.027344 61.375 62.886719 61.375 63.515625 61.871094 C 63.648438 61.972656 63.78125 62.136719 63.75 62.300781 C 63.714844 62.433594 63.617188 62.5 63.515625 62.597656 C 61.5625 64.054688 58.582031 64.25 56.398438 63.09375 Z M 56.398438 63.09375 "/>
<path style=" stroke:none;fill-rule:nonzero;fill:rgb(78.431373%,85.882353%,95.686275%);fill-opacity:1;" d="M 56.53125 62.960938 C 57.621094 62.101562 58.714844 61.242188 59.644531 60.21875 C 60.570312 59.195312 61.332031 57.972656 61.597656 56.617188 C 61.695312 56.21875 61.695312 55.722656 61.429688 55.394531 C 58.949219 57.34375 56.992188 59.855469 56.53125 62.960938 Z M 56.53125 62.960938 "/>
<path style=" stroke:none;fill-rule:nonzero;fill:rgb(78.431373%,85.882353%,95.686275%);fill-opacity:1;" d="M 56.429688 63.09375 C 56.628906 61.738281 56.695312 60.351562 56.363281 58.996094 C 56.066406 57.671875 55.339844 56.382812 54.179688 55.625 C 53.75 56.617188 53.949219 57.773438 54.246094 58.832031 C 54.710938 60.449219 55.4375 62.003906 56.398438 63.390625 "/>
<path style=" stroke:none;fill-rule:nonzero;fill:rgb(78.431373%,85.882353%,95.686275%);fill-opacity:1;" d="M 53.980469 67.457031 C 55.472656 67.625 56.761719 68.417969 57.855469 69.410156 C 58.949219 70.398438 59.742188 71.753906 60.074219 73.210938 C 58.617188 73.109375 57.390625 72.085938 56.496094 70.960938 C 55.601562 69.804688 54.972656 68.550781 53.980469 67.457031 Z M 53.980469 67.457031 "/>
<path style=" stroke:none;fill-rule:nonzero;fill:rgb(78.431373%,85.882353%,95.686275%);fill-opacity:1;" d="M 53.449219 68.152344 C 54.644531 65.210938 54.210938 61.671875 52.359375 59.128906 C 51.496094 62.136719 51.828125 65.507812 53.449219 68.152344 Z M 53.449219 68.152344 "/>
<path style=" stroke:none;fill-rule:nonzero;fill:rgb(78.431373%,85.882353%,95.686275%);fill-opacity:1;" d="M 50.238281 71.988281 C 51.597656 71.886719 52.953125 72.21875 54.113281 72.878906 C 55.273438 73.539062 56.230469 74.566406 56.828125 75.753906 C 56.894531 75.921875 56.992188 76.117188 56.863281 76.285156 C 56.761719 76.414062 56.597656 76.414062 56.429688 76.414062 C 55.140625 76.316406 53.980469 75.554688 53.019531 74.664062 C 52.09375 73.773438 51.265625 72.746094 50.238281 71.988281 Z M 50.238281 71.988281 "/>
<path style=" stroke:none;fill-rule:nonzero;fill:rgb(78.431373%,85.882353%,95.686275%);fill-opacity:1;" d="M 50.339844 71.753906 C 51.035156 69.539062 51.066406 67.128906 50.472656 64.878906 C 50.238281 63.988281 49.808594 63.0625 49.015625 62.664062 C 48.949219 62.632812 48.847656 62.597656 48.78125 62.632812 C 48.714844 62.664062 48.683594 62.730469 48.648438 62.796875 C 48.351562 63.390625 48.285156 64.085938 48.320312 64.78125 C 48.351562 65.441406 48.484375 66.101562 48.617188 66.765625 C 48.882812 67.988281 49.015625 69.277344 49.675781 70.335938 C 49.84375 70.597656 49.972656 70.863281 50.105469 71.128906 C 50.238281 71.390625 50.238281 71.492188 50.339844 71.6875 "/>
<path style=" stroke:none;fill-rule:nonzero;fill:rgb(78.431373%,85.882353%,95.686275%);fill-opacity:1;" d="M 41.828125 73.042969 C 42.457031 70.632812 41.796875 67.722656 40.273438 65.773438 C 40.171875 65.640625 40.007812 65.476562 39.84375 65.476562 C 39.578125 65.507812 39.476562 65.871094 39.511719 66.136719 C 39.578125 68.613281 40.40625 71.027344 41.828125 73.042969 Z M 41.828125 73.042969 "/>
<path style=" stroke:none;fill-rule:nonzero;fill:rgb(78.431373%,85.882353%,95.686275%);fill-opacity:1;" d="M 41.035156 73.574219 C 38.121094 74.332031 34.777344 73.605469 32.324219 71.820312 C 33.75 71.09375 35.472656 70.894531 37.027344 71.257812 C 38.617188 71.589844 40.074219 72.285156 41.035156 73.574219 Z M 41.035156 73.574219 "/>
<path style=" stroke:none;fill-rule:nonzero;fill:rgb(78.431373%,85.882353%,95.686275%);fill-opacity:1;" d="M 40.40625 71.953125 C 38.78125 69.308594 35.636719 67.558594 32.523438 67.390625 C 32.886719 68.648438 33.914062 69.640625 35.105469 70.234375 C 36.300781 70.828125 37.589844 71.09375 38.882812 71.324219 C 39.378906 71.457031 40.074219 71.558594 40.40625 71.953125 Z M 40.40625 71.953125 "/>
<path style=" stroke:none;fill-rule:nonzero;fill:rgb(78.431373%,85.882353%,95.686275%);fill-opacity:1;" d="M 41.664062 64.21875 C 41.234375 62.699219 40.769531 61.179688 40.667969 59.589844 C 40.539062 58.003906 40.769531 56.382812 41.597656 55.03125 C 43.121094 57.972656 43.285156 61.441406 41.730469 64.351562 "/>
<path style=" stroke:none;fill-rule:nonzero;fill:rgb(78.431373%,85.882353%,95.686275%);fill-opacity:1;" d="M 36.496094 61.609375 C 34.710938 58.367188 31.066406 55.789062 27.390625 55.425781 C 28.816406 58.964844 32.691406 61.707031 36.496094 61.609375 Z M 36.496094 61.609375 "/>
<path style=" stroke:none;fill-rule:nonzero;fill:rgb(78.431373%,85.882353%,95.686275%);fill-opacity:1;" d="M 37.625 62.269531 C 34.976562 62.664062 32.691406 64.382812 30.207031 65.410156 C 29.675781 65.640625 29.113281 65.804688 28.519531 65.738281 C 27.953125 65.671875 27.390625 65.277344 27.257812 64.714844 C 27.160156 64.25 27.359375 63.757812 27.691406 63.425781 C 28.019531 63.09375 28.453125 62.863281 28.914062 62.699219 C 31.628906 61.574219 34.542969 61.542969 37.390625 62.234375 "/>
<path style=" stroke:none;fill-rule:nonzero;fill:rgb(78.431373%,85.882353%,95.686275%);fill-opacity:1;" d="M 39.179688 64.121094 C 38.582031 64.285156 38.386719 64.613281 37.886719 65.011719 C 36.265625 66.398438 34.3125 67.390625 32.257812 67.886719 C 32.0625 67.953125 31.761719 67.953125 31.664062 67.753906 C 31.5625 67.589844 31.695312 67.390625 31.796875 67.226562 C 32.65625 66.136719 33.882812 65.410156 35.207031 64.914062 C 36.496094 64.417969 37.625 63.855469 39.179688 63.988281 "/>
<path style=" stroke:none;fill-rule:nonzero;fill:rgb(78.431373%,85.882353%,95.686275%);fill-opacity:1;" d="M 40.902344 52.847656 C 38.75 54.863281 35.671875 55.890625 32.722656 55.625 C 32.589844 55.625 32.457031 55.589844 32.359375 55.492188 C 32.160156 55.261719 32.390625 54.929688 32.625 54.730469 C 35.074219 52.882812 37.953125 52.085938 40.902344 52.847656 Z M 40.902344 52.847656 "/>
<path style=" stroke:none;fill-rule:nonzero;fill:rgb(78.431373%,85.882353%,95.686275%);fill-opacity:1;" d="M 38.847656 52.085938 C 36 49.9375 32.0625 49.3125 28.648438 50.402344 C 29.941406 51.65625 31.730469 52.351562 33.519531 52.515625 C 35.304688 52.683594 37.09375 52.550781 38.847656 52.085938 Z M 38.847656 52.085938 "/>
<path style=" stroke:none;fill-rule:nonzero;fill:rgb(78.431373%,85.882353%,95.686275%);fill-opacity:1;" d="M 39.675781 46.929688 C 39.90625 44.550781 39.742188 42.667969 39.941406 40.253906 C 39.941406 40.054688 40.007812 39.824219 40.171875 39.757812 C 40.4375 39.660156 40.636719 39.957031 40.703125 40.222656 C 41.429688 42.433594 41.035156 44.980469 39.675781 46.863281 "/>
<path style=" stroke:none;fill-rule:nonzero;fill:rgb(78.431373%,85.882353%,95.686275%);fill-opacity:1;" d="M 39.84375 47.195312 C 38.21875 46.203125 36.996094 44.882812 35.867188 43.328125 C 35.074219 42.269531 34.410156 40.980469 34.609375 39.660156 C 35.703125 39.625 36.761719 40.253906 37.457031 41.082031 C 38.1875 41.90625 38.582031 42.964844 38.914062 44.023438 C 39.246094 45.078125 39.476562 46.171875 39.84375 47.195312 Z M 39.84375 47.195312 "/>
<path style=" stroke:none;fill-rule:nonzero;fill:rgb(78.431373%,85.882353%,95.686275%);fill-opacity:1;" d="M 35.933594 46.105469 C 32.359375 44.78125 29.046875 42.832031 26.167969 40.351562 C 27.324219 39.890625 28.683594 40.15625 29.84375 40.648438 C 32.492188 41.707031 34.675781 43.527344 36 46.105469 "/>
<path style=" stroke:none;fill-rule:nonzero;fill:rgb(78.431373%,85.882353%,95.686275%);fill-opacity:1;" d="M 38.75 48.484375 C 36.960938 48.683594 35.105469 48.816406 33.320312 48.519531 C 31.5625 48.21875 29.910156 47.527344 28.253906 46.832031 C 28.121094 46.765625 27.953125 46.699219 27.921875 46.566406 C 27.855469 46.433594 27.921875 46.238281 28.054688 46.136719 C 28.1875 46.039062 28.320312 45.972656 28.484375 45.9375 C 30.273438 45.445312 32.191406 45.675781 33.949219 46.269531 C 35.703125 46.863281 37.160156 47.558594 38.75 48.484375 Z M 38.75 48.484375 "/>
<path style=" stroke:none;fill-rule:nonzero;fill:rgb(78.431373%,85.882353%,95.686275%);fill-opacity:1;" d="M 49.046875 52.945312 C 50.273438 50.46875 50.207031 47.558594 49.144531 45.015625 C 48.382812 46.136719 48.320312 47.59375 48.449219 48.945312 C 48.582031 50.300781 49.015625 51.691406 49.015625 53.046875 "/>
<path style=" stroke:none;fill-rule:nonzero;fill:rgb(78.431373%,85.882353%,95.686275%);fill-opacity:1;" d="M 53.949219 50.46875 C 57.027344 50.402344 60.105469 51.722656 62.191406 53.972656 C 60.667969 54.203125 59.078125 53.804688 57.6875 53.144531 C 56.296875 52.453125 55.039062 51.527344 53.816406 50.566406 "/>
<path style=" stroke:none;fill-rule:nonzero;fill:rgb(78.431373%,85.882353%,95.686275%);fill-opacity:1;" d="M 57.257812 49.378906 C 58.75 49.246094 60.207031 49.078125 61.664062 49.507812 C 63.121094 49.9375 64.410156 50.964844 65.007812 52.351562 C 63.617188 52.515625 62.191406 52.152344 60.902344 51.589844 C 59.609375 50.964844 58.417969 50.171875 57.257812 49.378906 Z M 57.257812 49.378906 "/>
<path style=" stroke:none;fill-rule:nonzero;fill:rgb(78.431373%,85.882353%,95.686275%);fill-opacity:1;" d="M 52.359375 49.410156 C 53.714844 48.515625 55.105469 47.625 56.664062 47.261719 C 58.253906 46.898438 60.074219 47.164062 61.164062 48.351562 C 59.90625 49.113281 58.351562 49.179688 56.863281 49.179688 C 55.371094 49.179688 53.582031 49.144531 52.191406 49.640625 "/>
<path style=" stroke:none;fill-rule:nonzero;fill:rgb(78.431373%,85.882353%,95.686275%);fill-opacity:1;" d="M 52.359375 49.476562 C 54.675781 47.195312 55.539062 43.128906 54.609375 40.054688 C 52.820312 42.800781 51.992188 46.203125 52.359375 49.476562 Z M 52.359375 49.476562 "/>
<path style=" stroke:none;fill-rule:nonzero;fill:rgb(78.431373%,85.882353%,95.686275%);fill-opacity:1;" d="M 46 43.0625 C 45.570312 42.039062 45.273438 40.980469 44.875 39.957031 C 44.476562 38.929688 44.015625 37.90625 43.253906 37.082031 C 42.523438 36.253906 41.496094 35.660156 40.40625 35.59375 C 41.101562 38.699219 43.152344 41.511719 45.96875 43.0625 "/>
<path style=" stroke:none;fill-rule:nonzero;fill:rgb(78.431373%,85.882353%,95.686275%);fill-opacity:1;" d="M 47.160156 44.386719 C 47.886719 43.394531 48.714844 42.039062 49.675781 41.3125 C 50.667969 40.585938 51.925781 40.121094 53.121094 40.417969 C 51.925781 42.601562 49.644531 44.121094 47.160156 44.386719 Z M 47.160156 44.386719 "/>
<path style=" stroke:none;fill-rule:nonzero;fill:rgb(78.431373%,85.882353%,95.686275%);fill-opacity:1;" d="M 46.929688 43.164062 C 47.390625 41.972656 47.886719 40.75 48.054688 39.460938 C 48.253906 38.171875 48.121094 36.816406 47.492188 35.726562 C 46.234375 38.105469 45.800781 40.683594 46.863281 43.195312 "/>
<path style=" stroke:none;fill-rule:nonzero;fill:rgb(78.431373%,85.882353%,95.686275%);fill-opacity:1;" d="M 46 35.726562 C 45.273438 33.34375 43.121094 31.59375 40.769531 30.800781 C 40.472656 30.699219 40.171875 30.601562 39.84375 30.667969 C 39.542969 30.699219 39.214844 30.933594 39.179688 31.230469 C 39.082031 31.625 39.445312 31.988281 39.742188 32.253906 C 41.5625 33.808594 43.683594 34.996094 46 35.726562 Z M 46 35.726562 "/>
<path style=" stroke:none;fill-rule:nonzero;fill:rgb(78.431373%,85.882353%,95.686275%);fill-opacity:1;" d="M 45.96875 33.773438 C 45.867188 32.253906 45.769531 30.699219 45.273438 29.246094 C 44.777344 27.792969 43.816406 26.4375 42.425781 25.808594 C 42.191406 27.363281 42.855469 28.882812 43.683594 30.203125 C 44.511719 31.527344 45.503906 32.785156 46 34.269531 "/>
<path style=" stroke:none;fill-rule:nonzero;fill:rgb(78.431373%,85.882353%,95.686275%);fill-opacity:1;" d="M 46 34.832031 C 46.597656 33.113281 46.664062 30.898438 47.691406 29.410156 C 48.417969 28.355469 49.578125 27.625 50.207031 26.535156 C 50.636719 27.59375 50.503906 28.785156 50.074219 29.808594 C 49.644531 30.832031 48.914062 31.726562 48.152344 32.550781 C 47.390625 33.34375 46.730469 33.972656 46 34.832031 Z M 46 34.832031 "/>
<path style=" stroke:none;fill-rule:nonzero;fill:rgb(78.431373%,85.882353%,95.686275%);fill-opacity:1;" d="M 46 85.769531 C 46.035156 85.769531 46.101562 74.234375 46.101562 59.988281 C 46.101562 45.742188 46.066406 34.203125 46.035156 34.203125 C 46 34.203125 45.933594 45.742188 45.933594 59.988281 C 45.902344 74.234375 45.96875 85.769531 46 85.769531 Z M 46 85.769531 "/>
<path style=" stroke:none;fill-rule:nonzero;fill:rgb(78.431373%,85.882353%,95.686275%);fill-opacity:1;" d="M 35.902344 51.195312 C 35.902344 51.195312 36.066406 51.261719 36.332031 51.359375 C 36.628906 51.460938 37.0625 51.589844 37.523438 51.757812 C 38.519531 52.085938 39.910156 52.582031 41.429688 53.210938 C 42.921875 53.839844 44.3125 54.367188 45.105469 55.0625 C 45.503906 55.394531 45.734375 55.757812 45.835938 56.054688 C 45.933594 56.316406 45.96875 56.484375 46 56.484375 C 46 56.484375 46 56.449219 46 56.351562 C 46 56.285156 45.96875 56.152344 45.902344 56.019531 C 45.800781 55.722656 45.570312 55.328125 45.171875 54.964844 C 44.777344 54.597656 44.214844 54.269531 43.582031 53.972656 C 42.953125 53.675781 42.226562 53.375 41.464844 53.046875 C 39.941406 52.417969 38.550781 51.957031 37.558594 51.625 C 37.0625 51.460938 36.628906 51.359375 36.332031 51.261719 C 36.066406 51.226562 35.902344 51.195312 35.902344 51.195312 Z M 35.902344 51.195312 "/>
<path style=" stroke:none;fill-rule:nonzero;fill:rgb(78.431373%,85.882353%,95.686275%);fill-opacity:1;" d="M 32.589844 43.097656 C 32.589844 43.097656 32.625 43.128906 32.722656 43.230469 C 32.824219 43.328125 32.953125 43.425781 33.085938 43.59375 C 33.417969 43.890625 33.914062 44.320312 34.476562 44.847656 C 35.671875 45.90625 37.292969 47.359375 39.082031 48.945312 C 40.867188 50.535156 42.425781 52.085938 43.515625 53.210938 C 44.046875 53.773438 44.476562 54.269531 44.777344 54.597656 C 44.90625 54.765625 45.007812 54.863281 45.105469 54.996094 C 45.171875 55.09375 45.238281 55.128906 45.238281 55.128906 C 45.238281 55.128906 45.207031 55.0625 45.140625 54.996094 C 45.074219 54.898438 44.972656 54.765625 44.84375 54.597656 C 44.578125 54.269531 44.148438 53.773438 43.617188 53.179688 C 42.558594 52.019531 41 50.46875 39.214844 48.847656 C 37.390625 47.261719 35.769531 45.808594 34.578125 44.78125 C 33.980469 44.285156 33.519531 43.855469 33.152344 43.558594 C 32.988281 43.425781 32.855469 43.328125 32.757812 43.230469 C 32.65625 43.097656 32.589844 43.0625 32.589844 43.097656 Z M 32.589844 43.097656 "/>
<path style=" stroke:none;fill-rule:nonzero;fill:rgb(78.431373%,85.882353%,95.686275%);fill-opacity:1;" d="M 41 50.535156 C 41.035156 50.5 40.667969 49.640625 40.304688 48.550781 C 39.941406 47.460938 39.742188 46.535156 39.710938 46.535156 C 39.675781 46.535156 39.777344 47.492188 40.140625 48.582031 C 40.339844 49.144531 40.539062 49.609375 40.703125 49.972656 C 40.867188 50.335938 41 50.535156 41 50.535156 Z M 41 50.535156 "/>
<path style=" stroke:none;fill-rule:nonzero;fill:rgb(78.431373%,85.882353%,95.686275%);fill-opacity:1;" d="M 46 57.507812 C 46 57.507812 46.101562 57.410156 46.265625 57.175781 C 46.464844 56.945312 46.695312 56.617188 46.960938 56.285156 C 47.558594 55.523438 48.382812 54.46875 49.3125 53.277344 C 50.238281 52.121094 51.101562 51.0625 51.695312 50.300781 C 51.992188 49.9375 52.226562 49.640625 52.425781 49.410156 C 52.589844 49.210938 52.6875 49.078125 52.6875 49.078125 C 52.6875 49.078125 52.589844 49.179688 52.390625 49.378906 C 52.191406 49.574219 51.925781 49.871094 51.628906 50.238281 C 51 50.964844 50.140625 51.988281 49.210938 53.179688 C 48.285156 54.335938 47.492188 55.425781 46.894531 56.21875 C 46.597656 56.617188 46.363281 56.945312 46.234375 57.144531 C 46.066406 57.375 45.96875 57.507812 46 57.507812 Z M 46 57.507812 "/>
<path style=" stroke:none;fill-rule:nonzero;fill:rgb(78.431373%,85.882353%,95.686275%);fill-opacity:1;" d="M 48.1875 54.664062 C 48.21875 54.699219 48.816406 54.003906 49.113281 52.945312 C 49.34375 52.1875 49.34375 51.527344 49.3125 51.195312 L 49.246094 51.195312 C 49.277344 51.328125 49.3125 51.394531 49.3125 51.394531 C 49.3125 51.394531 49.3125 51.328125 49.3125 51.195312 L 49.246094 51.195312 C 49.210938 51.492188 49.179688 52.152344 48.949219 52.878906 C 48.683594 53.9375 48.152344 54.664062 48.1875 54.664062 Z M 48.1875 54.664062 "/>
<path style=" stroke:none;fill-rule:nonzero;fill:rgb(78.431373%,85.882353%,95.686275%);fill-opacity:1;" d="M 51.066406 51.097656 C 51.101562 51.128906 51.265625 50.863281 51.730469 50.730469 C 52.160156 50.566406 52.820312 50.535156 53.515625 50.601562 C 54.246094 50.667969 54.875 50.765625 55.339844 50.898438 C 55.800781 50.996094 56.066406 51.097656 56.101562 51.0625 C 56.101562 51.03125 55.835938 50.929688 55.371094 50.765625 C 54.90625 50.632812 54.277344 50.46875 53.550781 50.433594 C 52.820312 50.367188 52.125 50.433594 51.695312 50.632812 C 51.199219 50.796875 51.035156 51.097656 51.066406 51.097656 Z M 51.066406 51.097656 "/>
<path style=" stroke:none;fill-rule:nonzero;fill:rgb(78.431373%,85.882353%,95.686275%);fill-opacity:1;" d="M 51.730469 50.203125 C 51.730469 50.238281 52.09375 50.039062 52.722656 49.839844 C 53.351562 49.640625 54.210938 49.410156 55.207031 49.34375 C 56.199219 49.277344 57.09375 49.34375 57.722656 49.476562 C 58.351562 49.574219 58.75 49.707031 58.75 49.675781 C 58.75 49.675781 58.648438 49.609375 58.484375 49.574219 C 58.316406 49.507812 58.054688 49.441406 57.722656 49.378906 C 57.09375 49.246094 56.164062 49.113281 55.171875 49.210938 C 54.179688 49.277344 53.285156 49.542969 52.65625 49.773438 C 52.359375 49.90625 52.09375 50.003906 51.960938 50.105469 C 51.828125 50.171875 51.730469 50.203125 51.730469 50.203125 Z M 51.730469 50.203125 "/>
<path style=" stroke:none;fill-rule:nonzero;fill:rgb(78.431373%,85.882353%,95.686275%);fill-opacity:1;" d="M 46 46.535156 C 46.035156 46.535156 46.363281 45.410156 46.730469 44.023438 C 47.09375 42.632812 47.324219 41.476562 47.292969 41.476562 C 47.257812 41.476562 46.929688 42.601562 46.5625 43.988281 C 46.234375 45.378906 45.96875 46.535156 46 46.535156 Z M 46 46.535156 "/>
<path style=" stroke:none;fill-rule:nonzero;fill:rgb(78.431373%,85.882353%,95.686275%);fill-opacity:1;" d="M 45.96875 46.535156 C 46.035156 46.535156 46.234375 45.808594 46.761719 45.046875 C 47.292969 44.253906 47.953125 43.855469 47.953125 43.824219 C 47.953125 43.789062 47.753906 43.890625 47.492188 44.054688 C 47.226562 44.21875 46.894531 44.550781 46.628906 44.949219 C 46.066406 45.742188 45.933594 46.535156 45.96875 46.535156 Z M 45.96875 46.535156 "/>
<path style=" stroke:none;fill-rule:nonzero;fill:rgb(78.431373%,85.882353%,95.686275%);fill-opacity:1;" d="M 46 79.621094 C 46.035156 79.621094 46.066406 79.359375 46.199219 78.863281 C 46.332031 78.367188 46.5625 77.671875 46.960938 76.878906 C 47.753906 75.257812 49.210938 73.175781 51.066406 71.128906 C 51.992188 70.070312 52.855469 69.109375 53.617188 68.152344 C 54.378906 67.226562 55.007812 66.300781 55.4375 65.507812 C 55.902344 64.714844 56.199219 64.019531 56.363281 63.558594 C 56.464844 63.328125 56.496094 63.128906 56.53125 62.996094 C 56.5625 62.863281 56.597656 62.796875 56.5625 62.796875 C 56.5625 62.796875 56.464844 63.0625 56.265625 63.523438 C 56.066406 63.988281 55.769531 64.648438 55.304688 65.441406 C 54.839844 66.234375 54.210938 67.09375 53.449219 68.019531 C 52.6875 68.945312 51.796875 69.9375 50.902344 70.960938 C 49.046875 73.042969 47.589844 75.125 46.828125 76.78125 C 46.429688 77.605469 46.199219 78.300781 46.101562 78.828125 C 46.035156 79.09375 46 79.257812 46 79.425781 C 46 79.523438 46 79.621094 46 79.621094 Z M 46 79.621094 "/>
<path style=" stroke:none;fill-rule:nonzero;fill:rgb(78.431373%,85.882353%,95.686275%);fill-opacity:1;" d="M 36.863281 69.308594 C 36.863281 69.308594 37.027344 69.410156 37.324219 69.574219 C 37.625 69.738281 38.054688 70.003906 38.550781 70.398438 C 39.046875 70.796875 39.609375 71.292969 40.171875 71.886719 C 40.734375 72.484375 41.332031 73.175781 41.929688 73.9375 C 43.121094 75.457031 44.246094 76.78125 44.941406 77.835938 C 45.273438 78.367188 45.539062 78.796875 45.703125 79.125 C 45.867188 79.425781 45.96875 79.621094 45.96875 79.621094 C 45.96875 79.621094 45.96875 79.589844 45.933594 79.492188 C 45.902344 79.390625 45.835938 79.292969 45.769531 79.125 C 45.636719 78.796875 45.40625 78.332031 45.074219 77.804688 C 44.410156 76.714844 43.320312 75.359375 42.09375 73.871094 C 41.496094 73.109375 40.902344 72.417969 40.304688 71.820312 C 39.710938 71.226562 39.148438 70.730469 38.648438 70.335938 C 38.121094 69.96875 37.691406 69.707031 37.359375 69.539062 C 37.191406 69.476562 37.0625 69.410156 36.996094 69.375 C 36.929688 69.34375 36.863281 69.308594 36.863281 69.308594 Z M 36.863281 69.308594 "/>
<path style=" stroke:none;fill-rule:nonzero;fill:rgb(78.431373%,85.882353%,95.686275%);fill-opacity:1;" d="M 36.695312 72.648438 C 36.695312 72.679688 37.09375 72.714844 37.722656 72.78125 C 38.351562 72.847656 39.214844 72.976562 40.105469 73.242188 C 41 73.539062 41.761719 73.96875 42.257812 74.367188 C 42.757812 74.761719 42.988281 75.0625 43.019531 75.0625 C 43.019531 75.0625 42.988281 74.960938 42.855469 74.828125 C 42.757812 74.695312 42.558594 74.5 42.324219 74.300781 C 41.828125 73.871094 41.101562 73.40625 40.140625 73.109375 C 39.214844 72.8125 38.320312 72.746094 37.691406 72.679688 C 37.09375 72.648438 36.695312 72.648438 36.695312 72.648438 Z M 36.695312 72.648438 "/>
<path style=" stroke:none;fill-rule:nonzero;fill:rgb(78.431373%,85.882353%,95.686275%);fill-opacity:1;" d="M 42.691406 74.695312 C 42.757812 74.664062 42.292969 73.96875 41.929688 73.042969 C 41.597656 72.085938 41.53125 71.257812 41.464844 71.292969 C 41.429688 71.292969 41.429688 71.492188 41.496094 71.820312 C 41.53125 72.152344 41.628906 72.613281 41.796875 73.109375 C 41.960938 73.605469 42.191406 74.003906 42.390625 74.265625 C 42.558594 74.566406 42.691406 74.730469 42.691406 74.695312 Z M 42.691406 74.695312 "/>
<path style=" stroke:none;fill-rule:nonzero;fill:rgb(78.431373%,85.882353%,95.686275%);fill-opacity:1;" d="M 33.914062 60.351562 C 33.914062 60.351562 33.980469 60.382812 34.082031 60.449219 C 34.214844 60.515625 34.378906 60.582031 34.542969 60.683594 C 34.742188 60.78125 35.007812 60.878906 35.304688 61.046875 C 35.605469 61.179688 35.933594 61.34375 36.265625 61.542969 C 36.429688 61.640625 36.628906 61.738281 36.828125 61.839844 C 37.027344 61.9375 37.191406 62.070312 37.425781 62.203125 C 37.820312 62.433594 38.253906 62.765625 38.683594 63.0625 C 39.542969 63.691406 40.4375 64.484375 41.300781 65.34375 C 42.160156 66.234375 42.886719 67.160156 43.515625 68.019531 C 43.816406 68.449219 44.113281 68.878906 44.34375 69.308594 C 44.476562 69.507812 44.578125 69.707031 44.675781 69.90625 C 44.777344 70.101562 44.875 70.300781 44.972656 70.464844 C 45.171875 70.828125 45.304688 71.160156 45.4375 71.457031 C 45.570312 71.753906 45.667969 71.988281 45.769531 72.21875 C 45.835938 72.417969 45.902344 72.582031 45.96875 72.714844 C 46 72.8125 46.035156 72.878906 46.035156 72.878906 C 46.035156 72.878906 46.035156 72.8125 46 72.714844 C 45.96875 72.582031 45.902344 72.417969 45.835938 72.21875 C 45.769531 71.988281 45.667969 71.753906 45.539062 71.457031 C 45.40625 71.160156 45.273438 70.828125 45.074219 70.464844 C 44.972656 70.269531 44.875 70.101562 44.777344 69.90625 C 44.675781 69.707031 44.542969 69.507812 44.445312 69.308594 C 44.210938 68.878906 43.914062 68.484375 43.648438 68.019531 C 43.019531 67.128906 42.292969 66.203125 41.429688 65.308594 C 40.570312 64.417969 39.644531 63.65625 38.78125 63.027344 C 38.351562 62.730469 37.921875 62.433594 37.523438 62.167969 C 37.324219 62.039062 37.125 61.90625 36.929688 61.804688 C 36.730469 61.707031 36.53125 61.609375 36.367188 61.507812 C 36 61.308594 35.671875 61.144531 35.371094 61.011719 C 35.074219 60.878906 34.808594 60.78125 34.609375 60.683594 C 34.410156 60.617188 34.246094 60.550781 34.113281 60.484375 C 33.980469 60.382812 33.914062 60.351562 33.914062 60.351562 Z M 33.914062 60.351562 "/>
<path style=" stroke:none;fill-rule:nonzero;fill:rgb(78.431373%,85.882353%,95.686275%);fill-opacity:1;" d="M 41.132812 65.175781 C 41.132812 65.175781 41.066406 64.878906 40.734375 64.582031 C 40.40625 64.285156 39.808594 63.988281 39.148438 63.953125 C 38.453125 63.921875 37.855469 64.121094 37.457031 64.285156 C 37.0625 64.449219 36.828125 64.582031 36.828125 64.582031 C 36.828125 64.617188 37.09375 64.515625 37.492188 64.382812 C 37.886719 64.25 38.484375 64.085938 39.148438 64.121094 C 39.808594 64.152344 40.339844 64.382812 40.671875 64.648438 C 41 64.945312 41.101562 65.210938 41.132812 65.175781 Z M 41.132812 65.175781 "/>
<path style=" stroke:none;fill-rule:nonzero;fill:rgb(78.431373%,85.882353%,95.686275%);fill-opacity:1;" d="M 42.226562 66.300781 C 42.257812 66.269531 41.863281 65.671875 41.761719 64.8125 C 41.664062 63.953125 41.929688 63.292969 41.863281 63.261719 C 41.828125 63.261719 41.761719 63.425781 41.664062 63.691406 C 41.597656 63.953125 41.53125 64.382812 41.597656 64.8125 C 41.664062 65.242188 41.796875 65.640625 41.929688 65.90625 C 42.09375 66.167969 42.191406 66.300781 42.226562 66.300781 Z M 42.226562 66.300781 "/>
<path style=" stroke:none;fill-rule:nonzero;fill:rgb(78.431373%,85.882353%,95.686275%);fill-opacity:1;" d="M 53.980469 81.273438 C 53.714844 85.671875 52.390625 90.167969 50.339844 94.695312 L 41.429688 94.695312 C 39.476562 90.199219 38.253906 85.738281 38.019531 81.273438 Z M 53.980469 81.273438 "/>
<path style=" stroke:none;fill-rule:nonzero;fill:rgb(98.039216%,98.039216%,98.039216%);fill-opacity:1;" d="M 39.476562 88.382812 C 39.476562 88.414062 42.425781 88.480469 46.035156 88.480469 C 49.644531 88.480469 52.589844 88.449219 52.589844 88.382812 C 52.589844 88.347656 49.644531 88.28125 46.035156 88.28125 C 42.425781 88.316406 39.476562 88.347656 39.476562 88.382812 Z M 39.476562 88.382812 "/>
<path style=" stroke:none;fill-rule:nonzero;fill:rgb(98.039216%,98.039216%,98.039216%);fill-opacity:1;" d="M 39.675781 90 C 39.675781 90.035156 42.425781 90.101562 45.800781 90.101562 C 49.179688 90.101562 51.925781 90.066406 51.925781 90 C 51.925781 89.96875 49.179688 89.902344 45.800781 89.902344 C 42.425781 89.902344 39.675781 89.9375 39.675781 90 Z M 39.675781 90 "/>
<path style=" stroke:none;fill-rule:nonzero;fill:rgb(98.039216%,98.039216%,98.039216%);fill-opacity:1;" d="M 50.207031 84.152344 C 50.171875 84.152344 50.105469 85.078125 50.105469 86.199219 C 50.105469 87.324219 50.140625 88.25 50.207031 88.25 C 50.238281 88.25 50.304688 87.324219 50.304688 86.199219 C 50.304688 85.078125 50.273438 84.152344 50.207031 84.152344 Z M 50.207031 84.152344 "/>
<path style=" stroke:none;fill-rule:nonzero;fill:rgb(98.039216%,98.039216%,98.039216%);fill-opacity:1;" d="M 45.4375 84.152344 C 45.40625 84.152344 45.339844 85.109375 45.339844 86.265625 C 45.339844 87.421875 45.371094 88.382812 45.4375 88.382812 C 45.472656 88.382812 45.539062 87.421875 45.539062 86.265625 C 45.539062 85.109375 45.472656 84.152344 45.4375 84.152344 Z M 45.4375 84.152344 "/>
<path style=" stroke:none;fill-rule:nonzero;fill:rgb(98.039216%,98.039216%,98.039216%);fill-opacity:1;" d="M 40.96875 84.117188 C 40.933594 84.117188 40.867188 85.078125 40.867188 86.265625 C 40.867188 87.457031 40.902344 88.414062 40.96875 88.414062 C 41 88.414062 41.066406 87.457031 41.066406 86.265625 C 41.035156 85.078125 41 84.117188 40.96875 84.117188 Z M 40.96875 84.117188 "/>
<path style=" stroke:none;fill-rule:nonzero;fill:rgb(98.039216%,98.039216%,98.039216%);fill-opacity:1;" d="M 38.320312 84.152344 C 38.320312 84.183594 41.761719 84.25 46 84.25 C 50.238281 84.25 53.683594 84.21875 53.683594 84.152344 C 53.683594 84.085938 50.238281 84.050781 46 84.050781 C 41.761719 84.085938 38.320312 84.117188 38.320312 84.152344 Z M 38.320312 84.152344 "/>
<path style=" stroke:none;fill-rule:nonzero;fill:rgb(10.980392%,7.843137%,24.705882%);fill-opacity:1;" d="M 57.160156 90.152344 C 57.160156 90.152344 56.1875 91.5625 54.808594 91.871094 C 53.429688 92.179688 52.085938 92.664062 52.066406 93.492188 C 52.050781 94.335938 56.042969 94.824219 57.613281 93.980469 C 59.96875 92.730469 60.210938 93.101562 60.46875 92.46875 C 60.730469 91.839844 60.160156 90.167969 60.175781 89.957031 C 60.195312 89.730469 57.160156 90.152344 57.160156 90.152344 Z M 57.160156 90.152344 "/>
<path style=" stroke:none;fill-rule:nonzero;fill:rgb(50.588235%,50.196078%,49.411765%);fill-opacity:1;" d="M 57.324219 89.453125 C 57.324219 89.453125 57.144531 90.132812 57.175781 90.152344 C 57.210938 90.167969 60.273438 90.523438 60.175781 89.972656 C 60.097656 89.535156 60 89.046875 60 89.046875 Z M 57.324219 89.453125 "/>
<path style=" stroke:none;fill-rule:nonzero;fill:rgb(10.980392%,7.843137%,24.705882%);fill-opacity:1;" d="M 67.507812 90.054688 C 67.507812 90.054688 66.8125 91.398438 65.609375 91.871094 C 64.332031 92.355469 63.308594 92.925781 63.339844 93.734375 C 63.355469 94.546875 66.472656 95.375 68.726562 93.816406 C 70.152344 92.828125 70.605469 92.828125 70.832031 92.210938 C 71.0625 91.59375 70.445312 89.972656 70.445312 89.777344 C 70.445312 89.535156 67.507812 90.054688 67.507812 90.054688 Z M 67.507812 90.054688 "/>
<path style=" stroke:none;fill-rule:nonzero;fill:rgb(50.588235%,50.196078%,49.411765%);fill-opacity:1;" d="M 67.476562 89.355469 C 67.476562 89.355469 67.492188 90.035156 67.507812 90.054688 C 67.542969 90.070312 70.507812 90.296875 70.429688 89.761719 C 70.363281 89.339844 70.136719 88.820312 70.136719 88.820312 Z M 67.476562 89.355469 "/>
<path style=" stroke:none;fill-rule:nonzero;fill:rgb(17.647059%,8.627451%,52.54902%);fill-opacity:1;" d="M 56.578125 48.105469 C 56.578125 48.105469 53.820312 59.816406 53.1875 63.386719 C 52.652344 66.417969 52.230469 69.582031 52.472656 71.773438 C 52.796875 74.480469 56.789062 88.5625 56.609375 89.355469 C 56.449219 90.152344 60.792969 89.484375 60.792969 89.484375 C 60.792969 89.484375 57.761719 73.800781 58.363281 70.878906 C 58.816406 68.722656 62.742188 54.351562 63.355469 55.078125 C 63.957031 55.808594 64.703125 68.640625 65.15625 70.765625 C 65.609375 72.890625 66.972656 89.714844 66.972656 89.714844 C 66.972656 89.714844 70.039062 90.152344 70.851562 89.484375 C 70.851562 89.484375 71.222656 75.128906 70.929688 71.140625 C 70.816406 69.613281 72.78125 52.90625 70.265625 46.175781 C 68.96875 42.605469 56.578125 48.105469 56.578125 48.105469 Z M 56.578125 48.105469 "/>
<path style=" stroke:none;fill-rule:nonzero;fill:rgb(100%,100%,100%);fill-opacity:1;" d="M 73.445312 23.203125 L 67.574219 20.867188 L 62.546875 21.273438 L 61.507812 21.730469 L 55.425781 24.761719 L 57.015625 35.921875 C 57.550781 37.917969 56.59375 41.8125 56.496094 43.871094 C 56.414062 45.507812 56.964844 46.253906 56.984375 46.273438 L 70.070312 44.503906 C 70.070312 44.503906 70.65625 40.546875 70.703125 38.40625 Z M 73.445312 23.203125 "/>
<path style=" stroke:none;fill-rule:nonzero;fill:rgb(15.294118%,18.823529%,21.568627%);fill-opacity:1;" d="M 56.964844 46.289062 C 56.964844 46.289062 56.65625 46.628906 56.578125 48.105469 C 56.578125 48.105469 68.96875 46.710938 70.28125 46.15625 C 70.28125 46.15625 70.332031 44.535156 70.054688 44.503906 C 69.761719 44.472656 56.964844 46.289062 56.964844 46.289062 Z M 56.964844 46.289062 "/>
<path style=" stroke:none;fill-rule:nonzero;fill:rgb(17.647059%,8.627451%,52.54902%);fill-opacity:1;" d="M 67.234375 44.796875 C 67.234375 44.796875 67.507812 46.433594 67.523438 46.871094 L 68.09375 46.757812 C 68.09375 46.757812 67.929688 45.023438 67.847656 44.730469 Z M 67.234375 44.796875 "/>
<path style=" stroke:none;fill-rule:nonzero;fill:rgb(17.647059%,8.627451%,52.54902%);fill-opacity:1;" d="M 58.003906 46.09375 C 58.003906 46.09375 57.792969 47.585938 57.777344 48.152344 L 58.378906 48.070312 C 58.378906 48.070312 58.507812 46.207031 58.570312 46.011719 Z M 58.003906 46.09375 "/>
<path style=" stroke:none;fill-rule:nonzero;fill:rgb(100%,68.235294%,45.098039%);fill-opacity:1;" d="M 67.542969 20.464844 C 67.507812 22.328125 63.730469 23.367188 63.730469 23.367188 C 63.730469 23.367188 62.15625 21.46875 62.53125 21.289062 C 62.675781 21.226562 62.742188 20.933594 62.757812 20.609375 C 62.773438 20.300781 62.757812 19.976562 62.742188 19.765625 C 62.722656 19.636719 62.722656 19.554688 62.722656 19.554688 C 62.722656 19.554688 63.257812 19.003906 63.941406 18.355469 C 65.140625 17.21875 66.777344 15.757812 66.777344 16.34375 C 66.777344 16.375 66.777344 16.40625 66.761719 16.457031 C 66.488281 17.738281 67.542969 20.464844 67.542969 20.464844 Z M 67.542969 20.464844 "/>
<path style=" stroke:none;fill-rule:nonzero;fill:rgb(84.313725%,58.431373%,45.098039%);fill-opacity:1;" d="M 66.097656 17.722656 C 66.097656 17.738281 65.9375 17.964844 65.660156 18.289062 C 65.074219 18.988281 63.988281 20.140625 62.773438 20.609375 C 62.789062 20.300781 62.773438 19.976562 62.757812 19.765625 C 62.625 19.765625 62.511719 19.75 62.382812 19.71875 C 62.722656 19.148438 63.210938 18.566406 63.210938 18.566406 L 63.972656 18.355469 Z M 66.097656 17.722656 "/>
<path style=" stroke:none;fill-rule:nonzero;fill:rgb(100%,68.235294%,45.098039%);fill-opacity:1;" d="M 66.8125 16.359375 C 66.488281 17.039062 66.179688 17.542969 66.082031 17.738281 C 66.015625 17.867188 65.871094 18.078125 65.644531 18.304688 C 65.027344 18.953125 63.875 19.796875 62.742188 19.765625 C 62.609375 19.765625 62.496094 19.75 62.367188 19.71875 C 61.914062 19.621094 61.363281 19.410156 61.070312 18.855469 C 58.71875 14.429688 60.421875 10.8125 60.421875 10.8125 C 60.421875 10.8125 66.84375 9.058594 67.851562 10.925781 C 68.5625 12.222656 67.589844 14.753906 66.8125 16.359375 Z M 66.8125 16.359375 "/>
<path style=" stroke:none;fill-rule:nonzero;fill:rgb(13.72549%,15.294118%,16.078431%);fill-opacity:1;" d="M 60.421875 10.8125 C 60.421875 10.8125 59.820312 10.777344 59.675781 9.691406 C 59.527344 8.621094 59.820312 8.3125 59.820312 8.3125 C 59.820312 8.3125 62.480469 7.242188 63.421875 7.113281 C 64.378906 6.96875 66.714844 6.835938 67.265625 7.4375 C 67.265625 7.4375 68.59375 7.144531 68.96875 9.269531 C 69.550781 12.660156 67.007812 15.9375 67.007812 15.9375 C 67.007812 15.9375 67.023438 13.730469 66.519531 13.4375 C 66.015625 13.148438 65.578125 13.84375 65.578125 13.84375 L 64.539062 14.023438 C 64.539062 14.023438 66.113281 10.746094 64.234375 10.632812 C 62.351562 10.503906 61.507812 10.988281 60.421875 10.8125 Z M 60.421875 10.8125 "/>
<path style=" stroke:none;fill-rule:nonzero;fill:rgb(93.333333%,65.882353%,52.54902%);fill-opacity:1;" d="M 65.609375 12.953125 C 65.707031 11.980469 67.542969 11.605469 67.410156 12.628906 C 67.28125 13.648438 66.390625 14.625 65.96875 14.589844 C 65.5625 14.558594 65.546875 13.699219 65.609375 12.953125 Z M 65.609375 12.953125 "/>
<path style=" stroke:none;fill-rule:nonzero;fill:rgb(30.588235%,20%,70.980392%);fill-opacity:1;" d="M 78.3125 37.789062 C 78.3125 37.773438 78.3125 37.738281 78.3125 37.722656 C 78.277344 36.296875 77.546875 30.601562 76.316406 26.820312 C 75.714844 24.988281 75.585938 23.707031 75.359375 23.546875 C 74.953125 23.269531 71.402344 22.265625 69.910156 21.695312 C 69.226562 21.4375 69.261719 21.453125 68.984375 21.355469 C 68.824219 21.519531 68.027344 22.425781 67.316406 23.414062 C 65.757812 25.539062 63.730469 28.996094 64.039062 32.175781 C 64.136719 33.195312 64.265625 34.65625 64.460938 36.3125 C 64.476562 36.457031 64.492188 36.585938 64.507812 36.734375 C 64.558594 37.105469 64.605469 37.496094 64.671875 37.886719 C 64.703125 38.113281 64.75 38.355469 64.785156 38.597656 C 65.191406 41.066406 66.488281 42.75 67.636719 44.761719 C 67.65625 44.78125 67.65625 44.796875 67.671875 44.8125 C 67.671875 44.828125 67.6875 44.828125 67.6875 44.84375 C 67.703125 44.894531 67.734375 44.925781 67.753906 44.972656 C 67.785156 45.039062 67.832031 45.121094 67.867188 45.183594 C 67.882812 45.234375 67.914062 45.265625 67.929688 45.316406 C 68.15625 45.71875 68.367188 46.140625 68.578125 46.546875 C 68.710938 46.824219 68.839844 47.082031 68.96875 47.359375 C 68.984375 47.390625 69 47.40625 69 47.441406 C 69 47.441406 69.210938 47.910156 69.488281 48.511719 C 69.585938 48.738281 69.699219 48.980469 69.796875 49.207031 C 69.878906 49.371094 69.941406 49.546875 70.023438 49.710938 C 70.085938 49.855469 70.152344 49.988281 70.203125 50.117188 C 70.332031 50.410156 70.445312 50.667969 70.527344 50.847656 C 70.589844 50.976562 70.621094 51.074219 70.640625 51.105469 C 71.027344 52.0625 71.320312 52.792969 71.449219 53.132812 C 71.5 53.261719 71.53125 53.34375 71.53125 53.34375 L 75.488281 51.234375 C 76.234375 50.878906 75.84375 48.914062 75.570312 48.152344 C 75.34375 47.519531 75.003906 46.839844 74.628906 46.140625 C 74.484375 45.851562 74.320312 45.558594 74.160156 45.265625 C 75.40625 43.171875 76.65625 41.03125 77.453125 39.554688 C 77.988281 38.597656 78.3125 37.949219 78.3125 37.789062 Z M 72 31.816406 C 72 31.800781 72 31.800781 72 31.816406 C 72 31.800781 72 31.785156 72.019531 31.785156 C 72.019531 31.769531 72.019531 31.769531 72.019531 31.753906 L 72.019531 31.738281 C 72.019531 31.738281 73.949219 34.640625 73.800781 37.15625 C 73.785156 37.542969 73.378906 38.535156 72.78125 39.816406 C 72.570312 40.285156 72.328125 40.773438 72.066406 41.308594 C 72.050781 41.292969 72.050781 41.257812 72.035156 41.242188 C 71.660156 40.382812 71.417969 39.554688 71.417969 38.859375 C 71.449219 38.84375 71.613281 33.3125 72 31.816406 Z M 72 31.816406 "/>
<path style=" stroke:none;fill-rule:nonzero;fill:rgb(30.588235%,20%,70.980392%);fill-opacity:1;" d="M 41.949219 33.585938 L 50.933594 35.46875 L 55.214844 24.695312 C 55.3125 24.632812 56.546875 23.984375 57.355469 23.609375 C 58.199219 23.222656 59.269531 22.75 60.226562 22.328125 C 60.679688 22.132812 61.101562 21.9375 61.476562 21.777344 L 61.507812 21.792969 C 61.507812 21.792969 60.972656 23.496094 60.292969 27.730469 C 60.273438 27.875 60.242188 28.023438 60.226562 28.167969 C 60.226562 28.183594 60.226562 28.199219 60.210938 28.21875 C 60.195312 28.316406 60.175781 28.410156 60.160156 28.507812 C 60.160156 28.523438 60.160156 28.523438 60.160156 28.542969 C 60.144531 28.605469 60.144531 28.671875 60.128906 28.753906 C 60.097656 28.914062 60.082031 29.09375 60.046875 29.273438 C 59.738281 31.332031 59.316406 34.851562 58.898438 38.386719 C 58.570312 41.179688 57.824219 44.050781 57.597656 46.191406 C 57.550781 46.613281 57.4375 47.164062 57.289062 47.796875 C 57.273438 47.863281 57.257812 47.941406 57.242188 48.007812 C 56.578125 50.714844 55.296875 54.527344 55.296875 54.527344 L 54.921875 54.1875 L 53.804688 53.199219 C 53.542969 52.972656 53.445312 52.613281 53.5625 52.304688 C 54.175781 50.390625 56.269531 43.613281 56.65625 38.84375 C 56.773438 37.351562 56.316406 35.9375 56.058594 34.59375 C 56.058594 34.609375 56.042969 34.609375 56.042969 34.625 C 55.816406 35.207031 55.570312 35.859375 55.328125 36.488281 C 54.664062 38.175781 53.980469 39.734375 53.707031 39.832031 C 53.074219 40.058594 41.25 36.945312 41.167969 36.488281 Z M 41.949219 33.585938 "/>
<path style=" stroke:none;fill-rule:nonzero;fill:rgb(30.588235%,20%,70.980392%);fill-opacity:1;" d="M 67.929688 25.980469 L 66.097656 26.96875 L 66.875 27.730469 L 64.785156 38.566406 C 64.363281 36.019531 64.167969 33.617188 64.023438 32.144531 C 63.535156 27.226562 68.644531 21.664062 68.96875 21.324219 C 69.210938 21.421875 69.472656 21.519531 69.746094 21.613281 Z M 67.929688 25.980469 "/>
<path style=" stroke:none;fill-rule:nonzero;fill:rgb(30.588235%,20%,70.980392%);fill-opacity:1;" d="M 61.507812 21.746094 C 61.507812 21.746094 60.828125 23.902344 60.03125 29.273438 C 59.722656 31.332031 59.300781 34.851562 58.878906 38.386719 L 58.457031 28.234375 L 59.335938 27.324219 L 58.554688 26.382812 L 60.210938 22.296875 C 60.664062 22.101562 61.085938 21.90625 61.460938 21.746094 Z M 61.507812 21.746094 "/>
<path style=" stroke:none;fill-rule:nonzero;fill:rgb(100%,100%,100%);fill-opacity:1;" d="M 69.066406 21.355469 L 67.542969 20.464844 C 67.542969 20.464844 67.492188 21.257812 63.730469 23.367188 L 64.800781 26.269531 Z M 69.066406 21.355469 "/>
<path style=" stroke:none;fill-rule:nonzero;fill:rgb(100%,100%,100%);fill-opacity:1;" d="M 62.742188 20.867188 C 62.742188 20.867188 62.804688 21.730469 63.746094 23.367188 L 61.652344 25.980469 L 61.507812 21.746094 Z M 62.742188 20.867188 "/>
<path style=" stroke:none;fill-rule:nonzero;fill:rgb(89.019608%,25.882353%,3.137255%);fill-opacity:1;" d="M 63.746094 23.367188 C 63.746094 23.367188 64.152344 24.925781 64.007812 25.363281 C 64.007812 25.363281 63.113281 25.671875 62.480469 25.28125 C 62.480469 25.28125 62.933594 24.195312 63.746094 23.367188 Z M 63.746094 23.367188 "/>
<path style=" stroke:none;fill-rule:nonzero;fill:rgb(41.176471%,45.098039%,47.843137%);fill-opacity:1;" d="M 63.242188 45.316406 C 63.242188 45.316406 61.425781 45.527344 60.808594 45.671875 L 60.890625 47.632812 L 63.277344 47.390625 Z M 63.242188 45.316406 "/>
<path style=" stroke:none;fill-rule:nonzero;fill:rgb(94.901961%,35.686275%,14.117647%);fill-opacity:1;" d="M 62.839844 25.136719 C 62.839844 25.136719 60.808594 30.082031 61.132812 35.613281 C 61.476562 41.355469 62.042969 43.433594 62.042969 43.433594 L 63.292969 44.941406 L 63.84375 43.074219 C 63.84375 43.074219 62.15625 35.761719 63.242188 28.640625 C 63.4375 27.339844 63.730469 24.90625 63.730469 24.90625 Z M 62.839844 25.136719 "/>
<path style=" stroke:none;fill-rule:nonzero;fill:rgb(93.333333%,65.882353%,52.54902%);fill-opacity:1;" d="M 68.953125 48.492188 C 68.953125 48.492188 68.515625 49.335938 68.078125 49.46875 C 67.636719 49.613281 67.007812 50.292969 67.007812 50.292969 L 70.085938 51.851562 C 70.085938 51.851562 70.898438 50.3125 70.945312 49.335938 C 70.980469 48.363281 68.953125 48.492188 68.953125 48.492188 Z M 68.953125 48.492188 "/>
<path style=" stroke:none;fill-rule:nonzero;fill:rgb(87.058824%,79.607843%,76.862745%);fill-opacity:1;" d="M 68.660156 48.574219 L 68.449219 48.964844 C 68.449219 48.964844 70.394531 50.34375 70.929688 50.425781 L 71.109375 49.90625 Z M 68.660156 48.574219 "/>
<path style=" stroke:none;fill-rule:nonzero;fill:rgb(30.588235%,20%,70.980392%);fill-opacity:1;" d="M 68.449219 48.589844 C 68.449219 48.589844 69.910156 49.757812 71.140625 50.292969 L 75.292969 43.109375 L 73.152344 39.117188 C 73.152344 39.117188 68.546875 47.894531 68.449219 48.589844 Z M 68.449219 48.589844 "/>
<path style=" stroke:none;fill-rule:nonzero;fill:rgb(30.588235%,20%,70.980392%);fill-opacity:1;" d="M 56.074219 32.109375 C 56.007812 33.441406 56.007812 34.625 56.007812 34.625 C 56.007812 34.625 56.007812 34.671875 56.007812 34.722656 C 56.007812 34.707031 56.007812 34.671875 55.992188 34.65625 C 55.765625 35.242188 55.523438 35.890625 55.28125 36.523438 C 55.214844 35.792969 55.214844 35.128906 55.230469 34.496094 C 55.328125 30.765625 56.546875 28.816406 56.546875 28.816406 C 56.269531 29.464844 56.140625 30.84375 56.074219 32.109375 Z M 56.074219 32.109375 "/>
<path style=" stroke:none;fill-rule:nonzero;fill:rgb(30.588235%,20%,70.980392%);fill-opacity:1;" d="M 74.644531 46.125 L 71.335938 49.988281 L 74.175781 45.25 C 74.335938 45.542969 74.5 45.832031 74.644531 46.125 Z M 74.644531 46.125 "/>
<path style=" stroke:none;fill-rule:nonzero;fill:rgb(94.901961%,35.686275%,14.117647%);fill-opacity:1;" d="M 50.542969 41.292969 L 42.871094 41.292969 C 42.351562 41.292969 41.882812 40.949219 41.769531 40.449219 L 38.445312 27.226562 C 38.265625 26.53125 38.816406 25.882812 39.546875 25.882812 L 47.21875 25.882812 C 47.738281 25.882812 48.207031 26.222656 48.320312 26.726562 L 51.648438 39.960938 C 51.824219 40.625 51.273438 41.292969 50.542969 41.292969 Z M 50.542969 41.292969 "/>
<path style=" stroke:none;fill-rule:nonzero;fill:rgb(100%,68.235294%,45.098039%);fill-opacity:1;" d="M 41.167969 37.609375 C 41.542969 37.269531 42.273438 37.074219 42.886719 36.683594 C 43.503906 36.277344 42.984375 35.875 42.984375 35.875 C 43.617188 35.664062 43.554688 35.386719 43.472656 35.191406 C 43.359375 34.933594 42.660156 35.015625 42.660156 35.015625 C 42.660156 35.015625 43.277344 34.882812 43.535156 34.769531 C 43.796875 34.65625 43.699219 34.234375 43.308594 34.089844 C 42.921875 33.960938 41.316406 34.332031 41.316406 34.332031 C 41.316406 34.332031 41.574219 34.203125 42.367188 33.828125 C 43.164062 33.441406 43.34375 33.101562 42.871094 32.9375 C 42.546875 32.824219 41.914062 33.066406 40.683594 33.863281 C 39.757812 34.460938 39.839844 34.542969 39.839844 34.542969 C 39.839844 34.542969 40.714844 38.015625 41.167969 37.609375 Z M 41.167969 37.609375 "/>
<path style=" stroke:none;fill-rule:nonzero;fill:rgb(61.568627%,71.372549%,99.607843%);fill-opacity:1;" d="M 30.425781 13.039062 L 12.792969 17.363281 L 22.957031 20.699219 Z M 30.425781 13.039062 "/>
<path style=" stroke:none;fill-rule:nonzero;fill:rgb(61.568627%,71.372549%,99.607843%);fill-opacity:1;" d="M 12.296875 17.863281 L 15.082031 29.222656 L 31.613281 25.167969 C 32.863281 24.859375 33.613281 23.527344 33.285156 22.191406 L 31.09375 13.257812 L 23.128906 21.417969 Z M 12.296875 17.863281 "/>
<path style=" stroke:none;fill-rule:nonzero;fill:rgb(61.176471%,30.196078%,18.823529%);fill-opacity:1;" d="M 27.261719 13.8125 C 27.277344 13.96875 27.304688 14.125 27.339844 14.28125 C 27.457031 14.765625 27.683594 15.191406 27.984375 15.546875 L 30.425781 13.039062 Z M 27.261719 13.8125 "/>
<path style=" stroke:none;fill-rule:nonzero;fill:rgb(61.176471%,30.196078%,18.823529%);fill-opacity:1;" d="M 31.109375 16.570312 C 31.371094 16.507812 31.613281 16.410156 31.835938 16.296875 L 31.09375 13.261719 L 28.433594 15.992188 C 29.164062 16.558594 30.144531 16.808594 31.109375 16.570312 Z M 31.109375 16.570312 "/>
<path style=" stroke:none;fill-rule:nonzero;fill:rgb(94.901961%,35.686275%,14.117647%);fill-opacity:1;" d="M 35.207031 14.359375 C 36.652344 12.339844 36.183594 9.535156 34.164062 8.089844 C 32.144531 6.648438 29.335938 7.117188 27.894531 9.136719 C 26.453125 11.15625 26.921875 13.964844 28.941406 15.40625 C 30.960938 16.847656 33.765625 16.378906 35.207031 14.359375 Z M 35.207031 14.359375 "/>
<path style=" stroke:none;fill-rule:nonzero;fill:rgb(100%,100%,100%);fill-opacity:1;" d="M 32.878906 14.019531 L 31.847656 14.25 L 31.082031 10.867188 L 30.4375 11.015625 L 30.203125 9.984375 L 31.871094 9.605469 Z M 32.878906 14.019531 "/>
</g>
</svg>
