<?xml version="1.0" encoding="UTF-8"?>
<svg xmlns="http://www.w3.org/2000/svg" xmlns:xlink="http://www.w3.org/1999/xlink" width="97pt" height="97pt" viewBox="0 0 97 97" version="1.1">
<defs>
<filter id="alpha" filterUnits="objectBoundingBox" x="0%" y="0%" width="100%" height="100%">
  <feColorMatrix type="matrix" in="SourceGraphic" values="0 0 0 0 1 0 0 0 0 1 0 0 0 0 1 0 0 0 1 0"/>
</filter>
<mask id="mask0">
  <g filter="url(#alpha)">
<rect x="0" y="0" width="97" height="97" style="fill:rgb(0%,0%,0%);fill-opacity:0.501961;stroke:none;"/>
  </g>
</mask>
<clipPath id="clip1">
  <rect x="0" y="0" width="97" height="97"/>
</clipPath>
<g id="surface5" clip-path="url(#clip1)">
<path style=" stroke:none;fill-rule:nonzero;fill:rgb(63.529412%,80.392157%,98.823529%);fill-opacity:1;" d="M 46.3125 24.78125 C 46.3125 24.78125 49.136719 14.613281 55.367188 9.246094 C 56.195312 8.535156 57.457031 9.265625 57.269531 10.34375 C 57.269531 10.363281 57.265625 10.382812 57.257812 10.402344 C 56.90625 12.238281 49.796875 19.121094 46.3125 24.78125 Z M 46.3125 24.78125 "/>
</g>
<mask id="mask1">
  <g filter="url(#alpha)">
<rect x="0" y="0" width="97" height="97" style="fill:rgb(0%,0%,0%);fill-opacity:0.501961;stroke:none;"/>
  </g>
</mask>
<clipPath id="clip2">
  <rect x="0" y="0" width="97" height="97"/>
</clipPath>
<g id="surface8" clip-path="url(#clip2)">
<path style=" stroke:none;fill-rule:nonzero;fill:rgb(63.529412%,80.392157%,98.823529%);fill-opacity:1;" d="M 45.214844 27.652344 C 45.214844 27.652344 52.464844 15.519531 62.335938 11.179688 C 62.9375 10.914062 63.660156 11.152344 63.945312 11.75 C 64.132812 12.132812 64.15625 12.699219 63.753906 13.515625 C 62.695312 15.683594 51.488281 21.796875 45.214844 27.652344 Z M 45.214844 27.652344 "/>
</g>
<mask id="mask2">
  <g filter="url(#alpha)">
<rect x="0" y="0" width="97" height="97" style="fill:rgb(0%,0%,0%);fill-opacity:0.501961;stroke:none;"/>
  </g>
</mask>
<clipPath id="clip3">
  <rect x="0" y="0" width="97" height="97"/>
</clipPath>
<g id="surface11" clip-path="url(#clip3)">
<path style=" stroke:none;fill-rule:nonzero;fill:rgb(63.529412%,80.392157%,98.823529%);fill-opacity:1;" d="M 60.054688 69.21875 C 60.054688 69.21875 71.0625 63.671875 73.054688 65.605469 C 75.042969 67.539062 60.054688 69.21875 60.054688 69.21875 Z M 60.054688 69.21875 "/>
</g>
<mask id="mask3">
  <g filter="url(#alpha)">
<rect x="0" y="0" width="97" height="97" style="fill:rgb(0%,0%,0%);fill-opacity:0.501961;stroke:none;"/>
  </g>
</mask>
<clipPath id="clip4">
  <rect x="0" y="0" width="97" height="97"/>
</clipPath>
<g id="surface14" clip-path="url(#clip4)">
<path style=" stroke:none;fill-rule:nonzero;fill:rgb(63.529412%,80.392157%,98.823529%);fill-opacity:1;" d="M 58.265625 69.886719 C 58.265625 69.886719 73.003906 68.582031 73.234375 71.671875 C 73.464844 74.753906 58.265625 69.886719 58.265625 69.886719 Z M 58.265625 69.886719 "/>
</g>
</defs>
<g id="surface1">
<path style=" stroke:none;fill-rule:nonzero;fill:rgb(85.490196%,92.156863%,99.215686%);fill-opacity:1;" d="M 74.578125 25.199219 C 74.417969 22.363281 69.734375 22.242188 69.734375 22.242188 C 69.734375 22.242188 65.683594 26.292969 64.769531 26.214844 C 63.855469 26.136719 67.5625 22.074219 67.5625 22.074219 C 65.867188 21.539062 61.027344 22.734375 61.027344 22.734375 C 61.027344 22.734375 60.152344 28.273438 59.28125 27.972656 C 58.414062 27.671875 60.304688 23.105469 60.304688 23.105469 C 58.527344 23.253906 56.5625 24.886719 56.5625 24.886719 C 53.941406 27.660156 57.621094 30.894531 57.621094 30.894531 C 57.621094 30.894531 57.277344 32.808594 55.648438 34.738281 C 55.648438 34.738281 55.296875 35.085938 54.886719 35.714844 L 55.339844 35.8125 C 55.40625 35.695312 55.46875 35.585938 55.539062 35.484375 C 55.539062 35.484375 55.539062 35.484375 55.539062 35.476562 C 55.585938 35.414062 55.652344 35.324219 55.730469 35.214844 C 55.929688 34.96875 56.0625 34.789062 56.152344 34.65625 C 56.753906 33.886719 57.582031 32.898438 58.039062 32.742188 C 58.039062 32.742188 58 32.660156 57.984375 32.511719 C 58.003906 32.582031 58.015625 32.660156 58.039062 32.742188 C 58.464844 34.585938 62.304688 35.695312 64.566406 35.707031 C 66.832031 35.722656 66.015625 34.90625 65.058594 33.660156 C 64.097656 32.414062 61.59375 32.160156 60.949219 31.613281 C 60.3125 31.066406 61.449219 30.902344 62.875 31.316406 C 64.296875 31.734375 64.710938 33.347656 67.007812 34.066406 C 69.300781 34.785156 72.007812 30.746094 72.007812 30.746094 C 70.289062 30.90625 67.582031 29.398438 67.585938 28.8125 C 67.59375 28.230469 71.867188 29.199219 72.570312 29.171875 C 73.28125 29.136719 74.734375 28.039062 74.578125 25.199219 Z M 74.578125 25.199219 "/>
<use xlink:href="#surface5" mask="url(#mask0)"/>
<use xlink:href="#surface8" mask="url(#mask1)"/>
<use xlink:href="#surface11" mask="url(#mask2)"/>
<use xlink:href="#surface14" mask="url(#mask3)"/>
<path style=" stroke:none;fill-rule:nonzero;fill:rgb(85.490196%,92.156863%,99.215686%);fill-opacity:1;" d="M 12.625 7.003906 C 15.394531 1.546875 24.730469 5.378906 24.730469 5.378906 C 24.730469 5.378906 29.222656 16.882812 31.085938 17.527344 C 32.957031 18.167969 29.160156 6.9375 29.160156 6.9375 C 32.957031 7.351562 41.476562 13.910156 41.476562 13.910156 C 41.476562 13.910156 38.414062 25.597656 40.382812 25.753906 C 42.351562 25.914062 42.566406 15.265625 42.566406 15.265625 C 45.9375 17.101562 48.421875 22.015625 48.421875 22.015625 C 51.191406 29.765625 41.144531 32.949219 41.144531 32.949219 C 41.144531 32.949219 40.171875 37.019531 41.707031 42.246094 C 41.707031 42.246094 42.09375 43.230469 42.367188 44.824219 L 41.382812 44.617188 C 41.359375 44.335938 41.324219 44.0625 41.273438 43.796875 L 41.277344 43.789062 C 41.277344 43.78125 41.277344 43.78125 41.269531 43.777344 C 41.234375 43.605469 41.1875 43.371094 41.121094 43.082031 C 40.945312 42.429688 40.835938 41.953125 40.773438 41.609375 C 40.257812 39.574219 39.464844 36.886719 38.707031 36.203125 C 38.707031 36.203125 38.851562 36.070312 39.011719 35.796875 C 38.914062 35.925781 38.8125 36.0625 38.707031 36.203125 C 36.277344 39.472656 27.753906 38.316406 23.273438 36.378906 C 18.792969 34.4375 21.109375 33.535156 24.082031 31.914062 C 27.054688 30.289062 32.210938 31.957031 33.941406 31.4375 C 35.679688 30.917969 33.574219 29.597656 30.402344 29.1875 C 27.234375 28.777344 25.027344 31.589844 19.882812 31.015625 C 14.746094 30.445312 12.886719 20.128906 12.886719 20.128906 C 16.140625 21.941406 22.777344 21.3125 23.273438 20.152344 C 23.765625 18.996094 14.503906 17.191406 13.140625 16.527344 C 11.78125 15.882812 9.863281 12.460938 12.625 7.003906 Z M 12.625 7.003906 "/>
<path style=" stroke:none;fill-rule:nonzero;fill:rgb(85.490196%,92.156863%,99.215686%);fill-opacity:1;" d="M 74.855469 48.613281 C 73.921875 45.140625 68.089844 46.222656 68.089844 46.222656 C 68.089844 46.222656 64.128906 52.296875 62.980469 52.445312 C 61.828125 52.59375 65.355469 46.585938 65.355469 46.585938 C 63.125 46.367188 57.441406 49.113281 57.441406 49.113281 C 57.441406 49.113281 57.796875 56.199219 56.648438 56.058594 C 55.5 55.910156 56.648438 49.769531 56.648438 49.769531 C 54.488281 50.417969 52.476562 52.953125 52.476562 52.953125 C 49.953125 57.074219 55.351562 60.109375 55.351562 60.109375 C 55.351562 60.109375 55.421875 62.570312 53.914062 65.386719 C 53.914062 65.386719 53.574219 65.90625 53.222656 66.792969 L 53.8125 66.792969 C 53.863281 66.632812 53.914062 66.476562 53.972656 66.332031 L 53.972656 66.324219 C 54.011719 66.234375 54.066406 66.105469 54.144531 65.945312 C 54.324219 65.59375 54.445312 65.328125 54.519531 65.144531 C 55.058594 64.03125 55.835938 62.585938 56.355469 62.28125 C 56.355469 62.28125 56.289062 62.191406 56.226562 62.011719 C 56.265625 62.09375 56.308594 62.191406 56.355469 62.28125 C 57.363281 64.449219 62.398438 64.808594 65.210938 64.230469 C 68.011719 63.652344 66.792969 62.859375 65.28125 61.566406 C 63.765625 60.277344 60.601562 60.617188 59.664062 60.109375 C 58.730469 59.601562 60.097656 59.09375 61.96875 59.242188 C 63.84375 59.390625 64.773438 61.265625 67.800781 61.5625 C 70.824219 61.847656 73.128906 56.136719 73.128906 56.136719 C 71.042969 56.785156 67.296875 55.628906 67.15625 54.902344 C 67.011719 54.179688 72.554688 54.253906 73.417969 54.035156 C 74.28125 53.820312 75.789062 52.085938 74.855469 48.613281 Z M 74.855469 48.613281 "/>
<path style=" stroke:none;fill-rule:nonzero;fill:rgb(77.254902%,87.843137%,98.431373%);fill-opacity:1;" d="M 13.824219 50.886719 C 15.898438 46.9375 22.660156 49.84375 22.660156 49.84375 C 22.660156 49.84375 25.808594 58.28125 27.164062 58.773438 C 28.515625 59.261719 25.871094 51.03125 25.871094 51.03125 C 28.632812 51.378906 34.769531 56.265625 34.769531 56.265625 C 34.769531 56.265625 32.414062 64.746094 33.851562 64.886719 C 35.28125 65.027344 35.558594 57.265625 35.558594 57.265625 C 37.996094 58.644531 39.746094 62.261719 39.746094 62.261719 C 41.683594 67.941406 34.324219 70.144531 34.324219 70.144531 C 34.324219 70.144531 33.570312 73.101562 34.636719 76.929688 C 34.636719 76.929688 34.910156 77.652344 35.089844 78.816406 L 34.375 78.65625 C 34.363281 78.449219 34.335938 78.25 34.304688 78.058594 C 34.304688 78.058594 34.304688 78.058594 34.304688 78.050781 L 34.304688 78.046875 C 34.28125 77.921875 34.246094 77.75 34.203125 77.539062 C 34.082031 77.0625 34.003906 76.710938 33.960938 76.460938 C 33.609375 74.972656 33.058594 73.007812 32.515625 72.492188 C 32.515625 72.492188 32.617188 72.398438 32.738281 72.199219 C 32.667969 72.292969 32.59375 72.390625 32.515625 72.492188 C 30.707031 74.84375 24.511719 73.90625 21.265625 72.433594 C 18.027344 70.964844 19.71875 70.335938 21.898438 69.1875 C 24.078125 68.039062 27.820312 69.316406 29.09375 68.957031 C 30.363281 68.597656 28.84375 67.613281 26.535156 67.273438 C 24.230469 66.941406 22.589844 68.957031 18.851562 68.480469 C 15.113281 68.003906 13.875 60.457031 13.875 60.457031 C 16.226562 61.816406 21.066406 61.4375 21.4375 60.605469 C 21.808594 59.769531 15.082031 58.335938 14.09375 57.84375 C 13.109375 57.347656 11.746094 54.832031 13.824219 50.886719 Z M 13.824219 50.886719 "/>
<path style=" stroke:none;fill-rule:nonzero;fill:rgb(82.745098%,90.980392%,98.039216%);fill-opacity:1;" d="M 10.414062 83.203125 C 9.316406 80.816406 13.09375 78.679688 13.09375 78.679688 C 13.09375 78.679688 18.152344 80.21875 18.859375 79.757812 C 19.578125 79.296875 14.792969 77.59375 14.792969 77.59375 C 15.941406 76.417969 20.414062 75.28125 20.414062 75.28125 C 20.414062 75.28125 23.519531 79.429688 24.101562 78.800781 C 24.679688 78.179688 21.160156 75.269531 21.160156 75.269531 C 22.675781 74.617188 24.988281 75.085938 24.988281 75.085938 C 28.324219 76.207031 26.71875 80.457031 26.71875 80.457031 C 26.71875 80.457031 27.824219 81.871094 29.988281 82.742188 C 29.988281 82.742188 30.425781 82.871094 31.03125 83.203125 L 30.699219 83.480469 C 30.597656 83.417969 30.496094 83.351562 30.390625 83.300781 C 30.390625 83.300781 30.390625 83.300781 30.386719 83.300781 C 30.320312 83.269531 30.226562 83.222656 30.109375 83.167969 C 29.84375 83.050781 29.65625 82.960938 29.523438 82.898438 C 28.707031 82.53125 27.59375 82.082031 27.160156 82.160156 C 27.160156 82.160156 27.152344 82.074219 27.101562 81.945312 C 27.121094 82.011719 27.140625 82.082031 27.160156 82.160156 C 27.605469 83.851562 24.949219 86.425781 23.109375 87.429688 C 21.261719 88.429688 21.582031 87.402344 21.824219 85.964844 C 22.066406 84.527344 24.003906 83.222656 24.292969 82.5 C 24.578125 81.773438 23.574219 82.132812 22.59375 83.097656 C 21.609375 84.058594 21.964844 85.554688 20.402344 87.140625 C 18.84375 88.726562 14.882812 86.609375 14.882812 86.609375 C 16.355469 85.992188 17.914062 83.578125 17.660156 83.101562 C 17.40625 82.625 14.332031 85.285156 13.746094 85.566406 C 13.167969 85.847656 11.515625 85.59375 10.414062 83.203125 Z M 10.414062 83.203125 "/>
<path style=" stroke:none;fill-rule:nonzero;fill:rgb(62.352941%,83.137255%,100%);fill-opacity:1;" d="M 43.273438 55.886719 C 43.207031 55.976562 42.949219 56.390625 43.285156 56.859375 C 43.308594 56.890625 43.320312 56.914062 43.328125 56.9375 C 47.328125 59.351562 59.320312 69.113281 59.320312 76 L 59.320312 90.257812 L 23.125 90.257812 L 23.125 75.992188 C 23.125 69.066406 35.277344 59.148438 39.191406 56.859375 C 39.320312 56.6875 39.359375 56.511719 39.359375 56.367188 C 39.359375 56.074219 39.191406 55.871094 39.191406 55.871094 C 35.273438 53.535156 23.125 43.6875 23.125 36.761719 L 23.125 22.503906 L 59.316406 22.503906 L 59.316406 36.765625 C 59.316406 43.6875 47.203125 53.582031 43.273438 55.886719 Z M 43.273438 55.886719 "/>
<path style=" stroke:none;fill-rule:nonzero;fill:rgb(89.019608%,25.882353%,3.137255%);fill-opacity:1;" d="M 61.394531 93.933594 L 20.761719 93.933594 L 20.761719 90.359375 C 20.761719 90.304688 20.808594 90.257812 20.867188 90.257812 L 61.304688 90.257812 C 61.355469 90.257812 61.402344 90.304688 61.402344 90.355469 L 61.402344 93.933594 Z M 61.394531 93.933594 "/>
<path style=" stroke:none;fill-rule:nonzero;fill:rgb(57.647059%,78.431373%,99.215686%);fill-opacity:1;" d="M 33.488281 76.878906 C 33.300781 80.070312 33.90625 86.957031 33.851562 90.261719 L 23.125 90.261719 L 23.125 76 C 23.125 69.074219 35.277344 59.152344 39.191406 56.867188 C 39.320312 56.691406 39.359375 56.519531 39.359375 56.375 C 39.359375 56.078125 39.191406 55.875 39.191406 55.875 C 35.273438 53.542969 23.125 43.691406 23.125 36.765625 L 23.125 22.503906 L 30.300781 22.503906 L 35.421875 23.910156 L 35.421875 35.1875 C 35.421875 35.1875 34.917969 38.433594 36.183594 41.625 C 37.453125 44.816406 40.175781 55.046875 40.136719 56.378906 C 40.097656 57.710938 33.804688 71.40625 33.488281 76.878906 Z M 33.488281 76.878906 "/>
<path style=" stroke:none;fill-rule:nonzero;fill:rgb(97.254902%,90.196078%,87.843137%);fill-opacity:1;" d="M 54.628906 31.984375 C 52.433594 32.019531 48.664062 32.410156 42.5625 33.964844 C 38.386719 35.023438 31.179688 34.222656 27.371094 33.675781 C 26.035156 33.484375 24.84375 34.527344 24.84375 35.878906 L 24.84375 37.523438 C 24.84375 42.054688 36.96875 51.863281 40.171875 54.375 C 40.65625 54.757812 40.945312 55.34375 40.945312 55.964844 L 40.945312 81.140625 C 40.945312 82 40.523438 82.804688 39.820312 83.296875 C 37.296875 85.070312 33.046875 90.257812 33.046875 90.257812 L 49.121094 90.257812 C 49.121094 90.257812 44.8125 85.246094 42.390625 83.390625 C 41.835938 82.964844 41.515625 82.304688 41.515625 81.609375 L 41.515625 55.953125 C 41.515625 55.335938 41.789062 54.753906 42.269531 54.371094 C 45.402344 51.839844 57.269531 41.996094 57.269531 37.472656 L 57.269531 34.601562 C 57.269531 33.136719 56.078125 31.960938 54.628906 31.984375 Z M 54.628906 31.984375 "/>
<path style=" stroke:none;fill-rule:nonzero;fill:rgb(89.019608%,25.882353%,3.137255%);fill-opacity:1;" d="M 61.292969 23.910156 L 20.859375 23.910156 C 20.808594 23.910156 20.761719 23.863281 20.761719 23.8125 L 20.761719 20.238281 L 61.394531 20.238281 L 61.394531 23.8125 C 61.394531 23.871094 61.351562 23.910156 61.292969 23.910156 Z M 61.292969 23.910156 "/>
<path style=" stroke:none;fill-rule:nonzero;fill:rgb(100%,68.235294%,45.098039%);fill-opacity:1;" d="M 76.355469 44.46875 C 76.355469 44.46875 78.128906 44.667969 79.5 44.589844 C 81.222656 44.488281 83.332031 44.441406 83.734375 44.898438 C 84.125 45.351562 84.125 45.351562 83.359375 45.753906 C 82.769531 46.0625 80.476562 47.070312 78.929688 46.597656 C 77.382812 46.117188 75.40625 46.214844 75.40625 46.214844 Z M 76.355469 44.46875 "/>
<path style=" stroke:none;fill-rule:nonzero;fill:rgb(17.647059%,8.627451%,52.54902%);fill-opacity:1;" d="M 57.421875 27.582031 C 57.421875 27.582031 60.722656 43.949219 64.652344 45.199219 C 66.589844 45.816406 75.082031 46.972656 77.5625 46.988281 C 77.5625 46.988281 78.144531 46.460938 77.875 44.460938 C 77.875 44.460938 68.894531 41.757812 67.546875 40.074219 C 65.535156 37.574219 68.066406 29.339844 65.589844 27.027344 C 63.117188 24.71875 59.132812 23.898438 57.421875 27.582031 Z M 57.421875 27.582031 "/>
<path style=" stroke:none;fill-rule:nonzero;fill:rgb(13.72549%,14.509804%,21.176471%);fill-opacity:1;" d="M 68.277344 80.992188 C 68.277344 80.992188 64.808594 83.234375 65.144531 83.960938 C 65.195312 84.054688 67.105469 87.507812 67.105469 87.507812 L 69.574219 91.910156 C 69.574219 91.910156 70.609375 91.289062 70.121094 89.867188 C 69.632812 88.457031 69.332031 85.789062 70.589844 84.054688 C 71.917969 82.238281 68.277344 80.992188 68.277344 80.992188 Z M 68.277344 80.992188 "/>
<path style=" stroke:none;fill-rule:nonzero;fill:rgb(94.901961%,35.686275%,14.117647%);fill-opacity:1;" d="M 87.652344 33.46875 L 83.855469 45.148438 L 84.304688 45.296875 L 88.101562 33.617188 Z M 87.652344 33.46875 "/>
<path style=" stroke:none;fill-rule:nonzero;fill:rgb(94.901961%,35.686275%,14.117647%);fill-opacity:1;" d="M 71.441406 44.238281 L 71.425781 45.011719 L 84.304688 45.289062 L 84.320312 44.515625 Z M 71.441406 44.238281 "/>
<path style=" stroke:none;fill-rule:nonzero;fill:rgb(13.72549%,14.509804%,21.176471%);fill-opacity:1;" d="M 77.113281 90.097656 C 77.113281 90.097656 78.8125 89.410156 79.503906 89.125 C 80.207031 88.828125 80.296875 88.214844 80.597656 88.625 C 80.90625 89.023438 82.398438 90.242188 83.199219 90.378906 C 83.992188 90.523438 88.9375 90.367188 88.9375 92.015625 C 88.9375 92.28125 86.441406 92.519531 83.015625 93.140625 C 79.804688 93.722656 79.046875 93.789062 77.484375 93.789062 C 76.785156 93.628906 77.113281 90.097656 77.113281 90.097656 Z M 77.113281 90.097656 "/>
<path style=" stroke:none;fill-rule:nonzero;fill:rgb(17.647059%,8.627451%,52.54902%);fill-opacity:1;" d="M 75.917969 66.550781 C 75.945312 64.765625 73.824219 59.773438 72.242188 56.761719 C 69.757812 51.9375 68.191406 48.183594 68.191406 48.183594 C 68.191406 48.183594 57.320312 48.9375 57.375 50.410156 C 57.484375 53.203125 59.988281 55.6875 61.078125 56.898438 L 63.40625 59.152344 C 63.40625 59.152344 65.710938 61.4375 67.355469 63.394531 C 69.558594 66.015625 68.921875 67.097656 69.996094 70.652344 C 70.957031 73.847656 76.667969 90.933594 76.667969 90.933594 L 81.550781 88.902344 C 81.550781 88.902344 75.882812 69.316406 75.917969 66.550781 Z M 75.917969 66.550781 "/>
<path style=" stroke:none;fill-rule:nonzero;fill:rgb(100%,100%,100%);fill-opacity:1;" d="M 64.328125 23.089844 C 64.328125 23.089844 66.78125 28.265625 67.027344 30.757812 C 67.273438 33.25 68.148438 38.539062 68.238281 39.9375 C 68.328125 41.339844 68.238281 48.234375 68.238281 48.234375 L 55.757812 53.539062 C 55.757812 53.539062 57.949219 49.5 57.574219 44.75 C 57.203125 40.003906 56.492188 36.472656 56.574219 33.734375 C 56.855469 24.382812 60.871094 21.242188 60.871094 21.242188 Z M 64.328125 23.089844 "/>
<path style=" stroke:none;fill-rule:nonzero;fill:rgb(100%,68.235294%,45.098039%);fill-opacity:1;" d="M 70.851562 14.445312 C 70.851562 14.445312 71.351562 16.757812 70.722656 16.910156 C 70.203125 17.039062 70.59375 19.277344 70.632812 19.640625 C 70.667969 19.996094 69.667969 19.960938 69.414062 20.113281 C 69.15625 20.261719 67.839844 22.632812 67.054688 22.488281 C 66.273438 22.34375 63.179688 20.152344 62.535156 18.914062 C 61.878906 17.667969 62.386719 13.054688 63.554688 11.390625 C 64.707031 9.707031 69.957031 10.398438 70.851562 14.445312 Z M 70.851562 14.445312 "/>
<path style=" stroke:none;fill-rule:nonzero;fill:rgb(100%,68.235294%,45.098039%);fill-opacity:1;" d="M 66.292969 21.160156 C 66.292969 21.160156 66.210938 21.40625 66.082031 21.777344 C 66.027344 21.933594 65.972656 22.125 65.910156 22.316406 C 65.863281 22.46875 65.808594 22.625 65.765625 22.789062 C 65.453125 23.828125 65.117188 25.082031 65.109375 25.683594 C 65.089844 26.820312 61.386719 21.214844 61.386719 21.214844 C 61.386719 21.214844 62.550781 17.738281 63.226562 13.691406 C 63.890625 9.652344 66.292969 21.160156 66.292969 21.160156 Z M 66.292969 21.160156 "/>
<path style=" stroke:none;fill-rule:nonzero;fill:rgb(16.078431%,16.862745%,17.647059%);fill-opacity:1;" d="M 70.957031 14.835938 C 70.957031 14.835938 72.640625 12.953125 71.058594 10.816406 C 69.476562 8.667969 65.019531 10.515625 64.5625 10.515625 C 64.117188 10.515625 61.679688 10.050781 61.796875 14.527344 C 61.898438 18.46875 62.050781 18.332031 62.050781 18.332031 C 62.050781 18.332031 63.296875 16.703125 63.816406 16.503906 C 64.625 16.191406 66.082031 16.703125 66.082031 16.703125 C 66.082031 16.703125 65.875 14.628906 67.054688 14.65625 C 68.238281 14.683594 69.949219 14.128906 70.957031 14.835938 Z M 70.957031 14.835938 "/>
<path style=" stroke:none;fill-rule:nonzero;fill:rgb(100%,68.235294%,45.098039%);fill-opacity:1;" d="M 65.164062 15.273438 C 65.144531 14.992188 65.144531 13.792969 64.007812 14.164062 C 62.871094 14.539062 63.808594 17.066406 63.960938 17.140625 C 64.117188 17.210938 65.355469 17.667969 65.164062 15.273438 Z M 65.164062 15.273438 "/>
<path style=" stroke:none;fill-rule:nonzero;fill:rgb(25.098039%,26.27451%,40.392157%);fill-opacity:1;" d="M 68.804688 49.742188 L 68.203125 48.117188 L 56.765625 51.628906 L 56.765625 53.195312 Z M 68.804688 49.742188 "/>
<path style=" stroke:none;fill-rule:nonzero;fill:rgb(77.647059%,58.039216%,45.490196%);fill-opacity:1;" d="M 66.019531 21.988281 C 66.019531 21.988281 65.945312 22.253906 65.828125 22.589844 C 65.78125 22.726562 65.746094 22.878906 65.691406 23.054688 C 64.4375 21.96875 63.945312 20.714844 63.933594 20.679688 C 64.898438 21.207031 66.019531 21.988281 66.019531 21.988281 Z M 66.019531 21.988281 "/>
<path style=" stroke:none;fill-rule:nonzero;fill:rgb(94.901961%,35.686275%,14.117647%);fill-opacity:1;" d="M 65.363281 24.972656 C 65.363281 24.972656 66.246094 26.328125 66.292969 26.910156 C 66.308594 27.128906 65.546875 26.992188 65.546875 26.992188 Z M 65.363281 24.972656 "/>
<path style=" stroke:none;fill-rule:nonzero;fill:rgb(17.647059%,8.627451%,52.54902%);fill-opacity:1;" d="M 68.738281 49.761719 C 68.738281 49.761719 83.941406 61.335938 85.277344 64.683594 C 86.324219 67.304688 70.507812 84.691406 70.507812 84.691406 C 70.507812 84.691406 68.214844 82.007812 67.894531 80.597656 C 67.894531 80.597656 74.507812 71.4375 78.164062 65.796875 C 79.648438 63.511719 60.367188 61.492188 59.496094 61.046875 C 55.882812 59.191406 58.085938 52.738281 58.085938 52.738281 Z M 68.738281 49.761719 "/>
<path style=" stroke:none;fill-rule:nonzero;fill:rgb(30.588235%,20%,70.980392%);fill-opacity:1;" d="M 69.449219 54.933594 C 69.449219 54.933594 61.101562 57.316406 54.867188 56.480469 C 55.066406 55.722656 55.632812 48.992188 55.421875 35.597656 C 55.269531 25.410156 56.394531 23.164062 60.417969 21.109375 C 60.515625 21.210938 65.890625 23.902344 65.902344 31.378906 C 65.902344 31.824219 66.089844 33.921875 66.089844 33.921875 C 66.089844 33.921875 66 36.796875 65.902344 37.234375 C 65.492188 39.144531 66.144531 37.792969 65.902344 39.65625 C 65.808594 40.320312 65.746094 41.046875 65.820312 41.695312 C 65.902344 42.433594 65.992188 43.132812 66.089844 43.804688 C 67.238281 51.355469 69.449219 54.933594 69.449219 54.933594 Z M 69.449219 54.933594 "/>
<path style=" stroke:none;fill-rule:nonzero;fill:rgb(48.627451%,60.784314%,78.039216%);fill-opacity:1;" d="M 59.523438 92.097656 L 61.214844 92.097656 C 61.234375 92.097656 61.242188 92.078125 61.242188 92.070312 L 61.242188 63.976562 C 61.242188 63.957031 61.222656 63.949219 61.214844 63.949219 L 59.523438 63.949219 C 59.503906 63.949219 59.496094 63.964844 59.496094 63.976562 L 59.496094 92.0625 C 59.496094 92.089844 59.503906 92.097656 59.523438 92.097656 Z M 59.523438 92.097656 "/>
<path style=" stroke:none;fill-rule:nonzero;fill:rgb(48.627451%,60.784314%,78.039216%);fill-opacity:1;" d="M 52.507812 93.945312 C 53.335938 91.789062 56.539062 90.1875 60.378906 90.1875 C 64.207031 90.1875 67.421875 91.796875 68.246094 93.945312 Z M 52.507812 93.945312 "/>
<path style=" stroke:none;fill-rule:nonzero;fill:rgb(48.627451%,60.784314%,78.039216%);fill-opacity:1;" d="M 54.402344 86.648438 L 66.621094 86.648438 C 66.628906 86.648438 66.636719 86.640625 66.636719 86.628906 L 66.117188 85.527344 C 66.117188 85.519531 65.890625 85.511719 66.117188 85.511719 L 54.402344 85.511719 C 54.390625 85.511719 54.382812 85.519531 54.382812 85.527344 L 54.382812 86.628906 C 54.382812 86.640625 54.390625 86.648438 54.402344 86.648438 Z M 54.402344 86.648438 "/>
<path style=" stroke:none;fill-rule:nonzero;fill:rgb(94.901961%,35.686275%,14.117647%);fill-opacity:1;" d="M 50.441406 66.96875 L 70.1875 66.96875 C 71.253906 66.96875 72.128906 66.132812 72.128906 65.113281 L 72.128906 62.320312 C 72.128906 61.300781 71.253906 60.464844 70.1875 60.464844 L 50.441406 60.464844 C 49.375 60.472656 48.5 61.300781 48.5 62.328125 L 48.5 65.121094 C 48.5 66.132812 49.375 66.96875 50.441406 66.96875 Z M 50.441406 66.96875 "/>
<path style=" stroke:none;fill-rule:nonzero;fill:rgb(94.901961%,35.686275%,14.117647%);fill-opacity:1;" d="M 66.269531 27.066406 C 66.269531 27.066406 68.496094 32.058594 68.992188 37.796875 C 69.5 43.746094 69.351562 45.9375 69.351562 45.9375 L 68.605469 47.578125 L 67.9375 45.691406 C 67.9375 45.691406 68.234375 38.027344 66.433594 30.734375 C 66.109375 29.414062 65.550781 26.902344 65.550781 26.902344 Z M 66.269531 27.066406 "/>
<path style=" stroke:none;fill-rule:nonzero;fill:rgb(17.254902%,10.980392%,50.980392%);fill-opacity:1;" d="M 66.101562 44.550781 C 65.128906 44.40625 64.34375 44.261719 63.898438 44.132812 C 61.152344 43.351562 60.359375 35.144531 58.976562 30.277344 C 57.785156 26.074219 59.941406 23.28125 63.253906 26.117188 C 63.28125 26.136719 63.308594 26.164062 63.335938 26.183594 C 64.679688 27.367188 65.164062 30.578125 65.398438 33.496094 C 65.273438 33.925781 65.117188 34.351562 65.019531 34.789062 C 64.609375 36.699219 66.15625 38.546875 65.910156 40.410156 C 65.820312 41.078125 65.753906 41.804688 65.828125 42.449219 C 65.910156 43.179688 66 43.878906 66.101562 44.550781 Z M 66.101562 44.550781 "/>
<path style=" stroke:none;fill-rule:nonzero;fill:rgb(100%,68.235294%,45.098039%);fill-opacity:1;" d="M 77.335938 41.820312 C 77.335938 41.820312 77.753906 42.03125 78.300781 41.957031 C 78.835938 41.886719 80.675781 41.695312 80.949219 41.886719 C 81.222656 42.078125 82.039062 42.941406 82.242188 43.125 C 82.441406 43.304688 82.6875 43.976562 82.6875 43.976562 C 82.460938 44.097656 81.984375 43.515625 81.710938 43.441406 C 81.441406 43.367188 79.109375 43.832031 78.519531 43.667969 C 77.917969 43.503906 77.035156 43.105469 77.035156 43.105469 Z M 77.335938 41.820312 "/>
<path style=" stroke:none;fill-rule:nonzero;fill:rgb(100%,68.235294%,45.098039%);fill-opacity:1;" d="M 80.910156 43.03125 C 80.902344 43.070312 81.375 44.097656 82.011719 44.015625 L 81.59375 43.230469 Z M 80.910156 43.03125 "/>
<path style=" stroke:none;fill-rule:nonzero;fill:rgb(100%,68.235294%,45.098039%);fill-opacity:1;" d="M 78.292969 41.957031 C 78.292969 41.957031 79.128906 41.558594 79.429688 41.339844 C 79.429688 41.339844 79.539062 41.441406 79.511719 41.550781 C 79.464844 41.730469 79.183594 42.011719 79.183594 42.011719 Z M 78.292969 41.957031 "/>
<path style=" stroke:none;fill-rule:nonzero;fill:rgb(30.588235%,20%,70.980392%);fill-opacity:1;" d="M 63.761719 24.34375 C 60.441406 21.507812 57.53125 24.417969 58.730469 28.613281 C 60.113281 33.480469 61.578125 41.902344 64.328125 42.6875 C 66.28125 43.242188 74.890625 43.816406 77.375 43.75 C 77.375 43.75 77.78125 43.304688 77.445312 41.320312 C 77.445312 41.320312 67.402344 39.875 66.292969 36.828125 C 65.902344 35.746094 66.390625 26.648438 63.84375 24.417969 C 63.808594 24.390625 63.789062 24.371094 63.761719 24.34375 Z M 63.761719 24.34375 "/>
<path style=" stroke:none;fill-rule:nonzero;fill:rgb(100%,100%,100%);fill-opacity:1;" d="M 61.589844 20.667969 C 61.589844 20.667969 63.984375 24.039062 65.628906 25.019531 L 65.429688 27.34375 L 60.859375 21.25 Z M 61.589844 20.667969 "/>
</g>
</svg>
